<mxfile host="app.diagrams.net" modified="2020-11-18T11:22:21.063Z" agent="5.0 (Windows NT 10.0; Win64; x64) AppleWebKit/537.36 (KHTML, like Gecko) Chrome/86.0.4240.198 Safari/537.36" etag="kZPcnDwc0gVom-IP1Jon" version="13.9.9" type="github">
  <diagram id="vMZ_HEUuOQoIKs21IjBn" name="Page-1">
    <mxGraphModel dx="1422" dy="762" grid="1" gridSize="10" guides="1" tooltips="1" connect="1" arrows="1" fold="1" page="1" pageScale="1" pageWidth="1169" pageHeight="827" math="0" shadow="0">
      <root>
        <mxCell id="0" />
        <mxCell id="1" parent="0" />
        <mxCell id="J7JJR4KkGGpUHsGLaVsS-11" style="edgeStyle=orthogonalEdgeStyle;rounded=0;orthogonalLoop=1;jettySize=auto;html=1;entryX=0;entryY=0.5;entryDx=0;entryDy=0;dashed=1;" parent="1" source="J7JJR4KkGGpUHsGLaVsS-2" target="J7JJR4KkGGpUHsGLaVsS-9" edge="1">
          <mxGeometry relative="1" as="geometry" />
        </mxCell>
        <mxCell id="J7JJR4KkGGpUHsGLaVsS-2" value="" style="shape=image;verticalLabelPosition=bottom;labelBackgroundColor=#ffffff;verticalAlign=top;aspect=fixed;imageAspect=0;image=data:image/png,iVBORw0KGgoAAAANSUhEUgAAAZAAAAGQCAYAAACAvzbMAAAABHNCSVQICAgIfAhkiAAAIABJREFUeJzt3XuUZFV59/Hfs09199y4zc0LIBDRyGUgRuI1iYLwqgQjGhxUTAgSndDV1SAqYqLptFkqSLjYXTWT1tcXGTVGSBTQaBR1YpYBIkZFRC7hqijODCPKAHOrOs/7BzNZk5HMdFed2rtO1/eTVX+4Mpznqa5z6ld7n3P2kQAAAAAAAAAAAAAAAAAAAAAAAAAAAAAAAAAAAAAAAAAAAAAAAAAAAAAAAAAAAAAAAAAAAAAAAAAAAAAAAAAAAAAAAAAAAAAAAAAAAAAAAAAAAAAAAAAAAAAAAAAAAAAAAAAAAAAAAAAAAAAAAAAAAAAAAAAAAAAAAAAAAPqApW6gm9zdJiYmDs2y7LmSDnL3A83sGZIOkLTf9n+2307//jFJD5vZw+5+d61We0uCtgH0kHq9vtLMntVqtQZCCAvcfdDMtuZ5/qikLVmW/crdf2Fm90m638zuN7O7zjrrrHWJW++6WRUgExMTQ1mWvdTdj5N0jLs/z8z2bWdb7v5ArVY7sOAWAZRMvV7/kaTDZvrfufsDZnaTpJvM7Ntbtmy5/txzz91UfIfpVFI30KmJiYklIYTXmNkfuPvx7r5gx//PbFblI4AE3P2xdr5LzOwAPTHb8Vp31+Dg4OZGo/Etd/+amV1brVZvK7zZyEoZIGNjY2HRokXHhRD+xN1PkTTX3VO3BWAWMrNHC9rUHHc/XtLx7n7B5OTkj8xs9cDAwMdXrFjxUEE1oipVgDQajQXufpakYUkHS4wyAHRdUQHyP5jZ4ZIu2LZt21/X6/WrJa0aGRn5t27U6pZSBMhFF100f86cOX/m7udLemrqfgD0DzN7rMszHHMkvUHSGyYnJ/89hHDh8PDwF82s56dVQuoGdmdsbKxSr9fPmTt37n1mdpkIDwDxdWUE8mTM7CXufm29Xv9eo9F4Tay67erZAFm5cuXzlixZcr2kSyUtTt0PgP60/fL+qMzsaHe/ul6vf2PlypVHxa4/XT03hbX9PMfftlqtt5pZzwYcgL4RbQTyJI5ttVr/OTEx8XdZlr2nWq2m7OXX9NQXtLubu18uaQXhAaAXuPvjKeubWSWEMOLuV1155ZVZyl521VNf0vV6fVzSKan7AICd9Mqv/leuXbv2otRN7KxnAqRer7/WzN6bug8A2EWvBIjM7O2NRmNF6j526IkAWbly5YHu/gnNsqVVAJSfmUU/ib477j4xOTm5LHUfUo8ESKvVqpvZ3qn7AIAn0TMjkO0GzWz11NTUQOpGkgdIvV7/YzP7w9R9AMCT6bURyHa/1Ww2z0/dRNIAueSSSxZKuiRlDwCwB702ApEkuft7V65c+Zspe0gaIENDQ+8UNwkC6GGtVqsXRyCSNOju4ykbSBYgU1NTi919JFV9AJgOd+/JEYgkufvyiYmJ56aqnyxAtm3bdp6kvVLVB4DpyLKsV0cgkmQhhPenKp4kQKampvZx9+EUtQFgJrY/uraXnTQxMXF4isJJAqTZbL7BzOanqL2rPM8fNLPPuvu7zexN7v5KM3t+pVL5vdS9AUhvdHR0S57nS0MIC7Mse8r253icIulCd785dX+SFEI4M0XdJDfu1ev1GyW9IEVt6b8fUfnpPM8/XqvVbirDuvsAetOqVauObLVaw5LOlDSYqI2H8jw/YHR0dEvMotEDZGJi4vAQwq2x627nkj5uZu+rVqs/T9QDgFlocnLyEDObkHRSohZOHRkZuTJmwejLuYcQTo1dU5Lc/ZdZlr15eHj4n1PUBzC71Wq1eyW9utFovNXd64o/GvlDSVEDJMU5kBNiF3T39ZJeRngA6LZqtfoxM3ulpFbMuu5+vLtHnVWKGiDbr776nZg1JW3OsuzkWq3WEye7AMx+1Wp1jbt/NmZNM3tKvV6P+vTCqAGydevWY80s9rTZXw4PD18fuSaAPufuH3D3PHLZqDM8UQPEzF4cs56737x06dKPxKwJAJI0Ojr6oxDCP8WsGUI4Omq9mMUkPSdmsRDC2PLly6POQwLADq1WazJmPXc/LGa92COQmAFy/7p1674QsR4A/A8bNmz49zzPH4xY8jdjnkiPFiATExNDeZ4fEquepE+Pj4/Hnn8EgP82Pj6em9nnI5ZcsGrVqgNiFYt2QjvLsgPdPVo9M/tyrFroorHv7autlaPlYWnqVqJxnyvTNslu0gVH3JW6HXQmhPC5mGv/NZvNxZJ+EqNWtC90d4/2yFp3f2z9+vU3xqqHLnjXD5+pij6ozf5amQ08sYhAn/jvCQiX3n3L9QrZufrQ4f+RsiW0r1Kp3LB169bczGLN+CyIVCfeFFYIIebS7beOj483I9ZDkd59y8tk+o5cy58Ijz5m9mJ5/m86/4dvTN0K2rNixYrHzeyeWPXMbPYFiCKmopn9KFYtFOy9Nx8i0+cUtG/qVnrIoFyX6/wfJXtwEDp2S6xCZhbtx3q0AHH3ubFqmdlPY9VCwZrZByTbL3UbPcc0JPMLU7eBtsVcQHZbrELRAiTP85hP9WKl3TI67/a95Hpd6jZ6lvvL9Re3PS11G5g5M/tFxFq/jFUr5hTWIxFr9foTxPBkrHW0TEOp2+hhQc1W1LWOUIw8zzfFqtVqtQiQTrj75li1UKCghalb6Hlmi1K3gJkzs2gBUqlUfhWrVrQAMbOYAcLyJaUU7TLH8rI0TxFFZ2L+qG02m1tj1Yp5DoQvdQD9alauisEvPgBAWwgQAEBboj8THeiWuQPh8f33qvzCQu+te9LKPfzskXzh5mYr2v1QQLcRICi93z9k/m3/dNoBWxfPryyTFG0l0ja0HtzY+s6Jn7h3v+//bMszUzcDdIopLJTaK549/5Zvvu3gQxbPrxyt3t+fs6ftlR3z3ZFDlx5z4Nz/St0M0KleP+CA3br6zQfNlTQndR8zYaa9vnLGwY+n7gPoFAGC0jrsKXPumzNgh6buox0L54ajlswL0Za3ALqBAEFpHbxviLk8TtHsoEVDG1I3AXSCAEFpZcF67mqrmRgMxs21KDUCBEhkKCNAUG4ECJDIYGV2Lm+B/kGAAIkMZAQIyo0AARKZk2VMYaHUCBAgEUYgKDsCBEhkKIRSX0UGECBAIoNZYASCUiNAgEQGB40AQakRIEAigyW/ERIgQIBEhggQlBwBAiQyNECAoNwIECCRwUrvPTkRmAkCBEhkMOMyXpQbAQIkMlghQFBuBAiQyFCWugOgMwQIkMgARx9Kjl0YSGTOYMYUFkqNAAESqVhuqXsAOkGAAIkMZIxAUG4ECJDIYBAjEJQaAQIkMpCRHyg3AgRIpFJJ3QHQGQIESGQoYwiCciNAgEQqxjkQlBsBAiSSZQQIyo0AARIZygIBglIjQIBEKmYECEqNAAESqWQECMqNAAESyYJz/KHU2IGBRCrBOP5QauzAQCKVwEl0lBsBAiTCFBbKjh0YSCRIPJMQpUaAAIlkxvGHcmMHBhLJssDxh1JjBwYSyQJTWCg3AgRIJIjLeFFu7MBAIsZJdJQcAYLSuvsXrX1S99CJR7a0HkndA9AJAgSlddvazQc/ti2/M3Uf7br8u49sTN0D0AkCBKX26k/8eJukx1P3MVPrNzW//96vPPii1H0AnSBAUGpr7nnsiBc07nngwUe3/aekZup+9iR3/8U/3/7ovx74wf96TjPXQOp+gE5UUjcAdOrbD2x69tM/cKcGMtu6YDD7Zep+dsMe3tRcKOllqRsBikCAYNbY1vLBhzc1B1P3AfQLprAAAG0hQAAAbSFAAABtIUAAAG0hQNA7LP9V6hZ6nombD9EzCBD0kOx2uTx1Fz3L5cr1/dRtADsQIOgdHzzsQZl9M3UbPcv0LV14xI9TtwHsQICgt+T2HpXgjvIEmsrtnambAHZGgKC3fPjwGyWdJbdW6lZ6SFNub9WHj/h26kaAnREg6D0XHPl/lfkJkv8gdSvJmX9HbsfqwiM+kboVYFcsZYLe9MEj10g6Wu/+4dGSjlbQU+WyQra9cd1rZfm8QrYlSfMXf15WKXJF4K1ye1iym3TB4bcWuF2gUAQIetuFR94s6eZCt3naFSOSDihsew///ER9+s0PFLY9oCSYwgIAtIUAAQC0hQABALSFAAEAtIUAAQC0hQABALSFAAEAtIUAAQC0ZVYGSAiBJcEB9JLZ+V2buoFuMLNNqXsAgB3M7Gmpe+iGWRkg7l7kukQA0BEz2z91D90QLUDcfW6sWq1W67FYtQBgGvaLVcjdo32vRyuUZdlesWoNDAwwAgHQM9x9TqxalUplfqxa8ZIqhGgBwhQWgF5iZtFWPnf3vWPVihYgeZ4TIAD6Up7n0b6TzGxBrFoxz4HsG6nU1iVLlqyPVAsA9sjMNsaqNStHIGZ2WKQ69y9fvpznaQPoJWsj1jooVqGYl/Eui1Ekz/N7YtQBgOkys3tj1XL3o2LVmnUBYmYECICeYmZ3Rqx1dKxaUQJkYmJib0UaVrn7fTHqAMB0rV279hZ33xKjlrsfMTY2FuWqrygBkmXZ8ZIsRq0Qwh0x6gDAdI2Pj281sx/EqGVmQ0uXLn1hjFpRAsTdT45RZ7v/iFgLAKbruoi1XhOjSNcDZGpqah9Jf9TtOtvdV61Wfx6pFgBMm5l9OVatPM9Pn5iYGOp2na4HyNatW98qaV6362z3jUh1AGBGlixZcoO7PxCjlpktybLs1G7X6WqAXHrppfua2fndrLGzmAkPADOx/f60T8Wq5+7j3R6FdDVABgYGLpa0qJs1drK5UqnEnGMEgBkJIXxcUqwbnQ/Osuz93SzQtQCp1+unS3pLt7a/KzP7wooVK34Vqx5KLSt0ayGflc/VQfGq1epdkj4fq16e5++cnJz8w25tvys7fqPROEXSx7qx7f+NmV0Rsx5K6rRP7S3XkkK3mbd+o9DtYbb7kKQoj902s2Bmn5mcnHxFN7ZfaICMjY1VGo3G+/I8/6ykgSK3vQd3rl27lvMfmIa8JlOxN1mZzi10e5jVRkZGvuvun4lYcp6ZfaHRaLxjbGys0O/8Qjbm7lav109cunTpt939/WYWe0h/8fj4eB65JsrmzZ9YLve/Kny7Hl6tN67+G710TbRnPqDczOwv3D3mk1MH3P1vFy9efEOj0fg/RW207bvDp6am9mk2m8dIOtbdT5V0aFFNzYS73z44OHjUihUrtqWoH92rJoa0cO/flekZym1p6nZKwWxIub9UQcd1tY7rh5KulfRIV+vMKv6Igt+rLfO/pauWP5q6m5gmJydrZjaRqPyd7v7ZEMKaVqv1n6Ojo23tszMKkEaj8SV3P1jSEkmL2ylYtBDCScPDw/+cuo+u+5MrFqllfynP/0xm0R7OBUTh2iTTZ9Rqvk//cObPUrcTw9jYWFiyZMnXJB2buhdJD0lab2b3VavVE6f7H81oqinP82WSDlOPhIekT/ZFeLzp8t9S078n+dsJD8xKprmS3qKQ3aLTLn9Z6nZiGB8fz5vN5hsl/TR1L3riO/2w7d/x01bmyw/vCSGcnbqJrjv18oNl9lWZHZi6FaDrzBZK9mX98epjUrcSwznnnLM2hLDc3Tel7qUdZQ2QR9395OHh4YdTN9J1Fa2WrNjLToGeZnOU+6f65aKE4eHh60MIp7p7M3UvM1XGAHnc3V9Tq9VuSd1I1532iZdL4fdStwEk8Js68P43pW4ilmq1+oUQwp+WLURKFSDu/kszO6lWq/XHoolur0/dApCOn5K6g5iq1eqnJb1e0ubUvUxXmQLkTkkvqlara1I3Eo3Zb6duAUgmD323/9dqtaslvcTdf5y6l+koQ4C4pI+a2fNqtdrtqZuJynPOfaCfPSV1AymMjIx8V9KLJH09dS970usnqa4PIbxreHj4+tSNJGHW658P0D1FLzlTIrVa7WfufkKj0ai5+wfNbH7qnp5ML35ALulr7n5xrVb7SupmACAFM3NJE5OTk/8o6QJJb1YHq4d0Qy9OYZmkLWbWX9NVALALd7csy55rZk9L3cuT6cUAkaST3P3WycnJs929pxIXAGKYmJj4vXq9fmOe51909+PVY6MPqXcDRGY238wuq9frX5ucnHx66n4AIIaJiYm96/X6VAjhm2b2/NT97E7PBsgOZnacu39nYmLihal7AYBuWrVq1ZEhhO9Jept6cMSxq54PEEkKITzNzP61Xq+/NnUvANAN9Xr9hFardb2k0jzhshQBIklmNuTuVzYajdNS9wIARarX6ye4+zWSSrXadmkCRJLMrOLuV9Tr9T9K3QsAFGFycvJod/+8mc1N3ctMlSpAtsvc/ZP1ev1FqRsBgE7U6/VFZnZNr94ouCdlDBBtT+rPcXUWgJJbKemg1E20a0YBEkK4Jc/zH0pa16V+ZuKpkj45NjZWyhAE0N8mJydPlrQ8dR/brcvz/IchhBk9JmNGS5ns/KzcRqOxwMye12q1jpV0qpk9ZybbKoKZHbd06dJhSfXYtUvL9ZCCv0Nbtlyjq1b8KnU7KLlXTQxp0X7Pl/vFkv9O6nbKYmpqaqDZbH7Y3VO1cIe7/0OWZWuGhoa+e+aZZ25sZyOFXWc8MTFxvKS/CSHEvl/j0VardcTZZ59diuWPZ+S0K34i6YDiNui/lA/8lv7+tPuL2yYg6aVrKtr/x1+W6fhCt/vp03v+Xoh2TE5O/rmZrUpQ+iZ3f19R6wwWNv0zOjr6tQ0bNrzEzM6VtK2o7U7DgizLPhixXomFccIDXfHNY5tq5W+VPE/dSq+78sorMzN7R+SyLUnnL1269EVFLlJb6PmD8fHxvFqtXmpmJ0V+SPyb6vV63z18ZsaCWN0Y3fPZM+6TnEVQ92D9+vUnSTo0Vj133+LurxsZGblw+fLlrSK33ZUT0NVq9ashhDe6R/s1YmZ2fqRa5ZWHtuY5gWnzwHm1PXD302OWCyGcWavVru3Gxrt2BVO1Wr0mhHBJt7a/K3d/3cqVK0uzBACA/rNy5cr93P3EPf/Lwnxs+7PWu6Krl8DOmzfvfZJizbln7v6WSLUAYMbyPH+FmQ1FKrdu7ty57+xmga4GyBlnnLHZzP66mzV2luf5H3NfCIBe5e6viljuQ+1enjtdXf+yXbdu3d+7+9pu15EkM3vGokWLenr9fAB97bhIdTbOnTv3490u0vUAGR8f32pmXZuD25WZxZxfBIBpWbVq1f5mVuB9Xbt1VbdHH1KktbDyPL86Rh1JMrNib2QCgAK0Wq1osyNm1pWrrnYVJUA2bNhwg6TNMWpJeu7Y2NhgpFoAMF3PjlFk++0TX49RK0qAjI+PN83sthi1JM1ZtGjREZFqAcB0RbnNwMzuqVarj8aoFe2KJXf/QaxaIYRnxaoFANNhZrHuU5vRirqdiBYgZnZzrFqSDolYCwD2yN0JkHa5e8zVcp8asRYA7NbY2FhF0oExarn7HTHqSHFHIDHXYVoQsRYA7NbixYuXShqIUSvLsmjrkUULkFar9UisWnmel/L5wgBmp5jfSc1mM9p3bbQACSHeSrBmFvN5JACwWyGEeRHLRbkCS4o7Aok5hbUlYi0A2C13nxurVpZl0b5rY54Difmksg0RawHAbplZtBFIq9WKddN2vACJ7GepGwCAHWIGSEyzNUDWpW4AAHYwszmpe+iG2RogMafLAGC38jy31D10QyV1A7PF22944dzBRze+2YOOd4X95er4F8e2rZc9oqDC1hAbyFrX6Ixl3u5/b9I6l98SQrb6wuNuvrWovpDOedcte7lMp+TyZ5tsn06398jGqafnHh4uojdJ2veMZd/p5L836TEzv8vNrvnwsbd8Qaa293/8OgKkAOddt+yF2vjYVW7hAOVSUT81BgeaBW1pJx0ePiZ7Vd5sveO86w6/5N6Hj3jPVcuvahXTGGI6e83R+w5ua35a0olyKRS01+6zoOALgFzP63gTbr8v6S3nffXI63XdwOs/fML3OEdakNk6hRXNu69btqwlv85NB7ie+H6e7S+ZZa7sXQcvvPXigv6MiGjsysMHB7flX5SFE1PvS1FfwV6c+7av17506N4F/Sn7HgHSoVYrnwpuC9IfHfFfnofRd371qBcU85dELI/tlw1Leknq/SfFy2TPGRwYfG8hf0gQIJ14+3XLlinYi1z9+X+STNZ8a+rPATPjua9Ive8k3W9zO3NszUuZvi8Af8QOZC0/prATHiXlbsek7gHT986vHjVfnj/nifzvTyZbuLH1y9+QdGfqXsqOAOmAm+9r3t8JYq5FqXvA9LW22r4ZR720NV+YuoXZgF2pA+7W3+mB0hkIuXHZnBRCn//yKwgB0qk+ngqQxPsvIz6z4q6173OcRAcAtIURSCdaUr8PhFkzpnycEYhafX7cFoUA6UhOgjAfUj4kiLSt34/bYhAgHeJQRJlsEgc9isO+1IlcnIxD+fCrBwXhJDoAoC2MQDqQS33/a67P334pcQoERWEEAgBoCyOQTvX7r7l+f/9lxGfGucuCECCdyCXv86Ox399/6WySvMJnZizoUgimsAAAbWEE0ql+/zHX7++/jPjMpC48LbofESAdYBkPvovKiM+MUyBFIUA6QYLwbVRGfGYoCAHSob6/pr7f338J9f0+K5bCKgon0QEAbWEE0omWmExF+TAC4bgtCAHSgZaaMmWp20iME0Flw707KAoB0imORZQN+6y0LXUDswMB0gmWc0cZESAoCAHSIY5FlA37LIpCgHSKoxFlwz6LghAgHWAGC2VEfnDcFoUA6RRHI8qGfZYEKQgB0jGORpTJJnHYoyjsSZ3IiY+cX3Llsklyjnq12G8Lwa7Uqb5PkNQNYMb6fZ+VWM69IKyFBQBoCyOQDuQ55+L4NVsumyTxRFsUhREIAKAtjEA61e+/5vr9/ZcRnxlTBwUhQDrRktz6+2hkZdfycZ4oJRkJUgSmsAAAbWEE0qF+/zHX52+/lPp9n5UkYzn3QjACAQC0hRFIJ1hNEWXECAQFIUA6wE3YfBeVEZ8Zv/uKQoB0iqMRZcM+i4IQIJ3q+zOS/f7+S6jv91lJxmJYRSBAOsShiLJhn5W4CKsYBEgnOAnCZHLZ8DiQJ7DfFoJdqQMtsR+ifBiBoCgESKf6/WhkFFY+/b7PSjwPpCAESCf48uTLqIz4zFAQAqRDHIsoG/ZZFIUA6VS/XxLZ7++/jPjMOHlZENbCAgC0hRFIB/IWjxXgt2z5MADhuC0KIxAAQFsYgXSKX3MoG/ZZbkUvCAHSkbzl3t9jYedi5lLZnFdaFbVSt5FcywN/hAIwhdUBy21d6h6SM/08dQuYvi37hQ0u7/svTw8t9tsCECAdaLn+LXd39ydOTPbjS+7/mvpzwPRdtfxHW911Q+r9JuUrz3XPJ1fc8+PUn8VsQIB0YPVZ//VTz/0zT0wq9+Mr35zLG0X8LRGPmV+cft9J+DK/uIi/IwiQjlk+MOq535X6mIj9cnf3XH/OL7nyuWLF3VfLW1Op96E0r/yaQx686+8K+UOCAOnU6pHbN2RNe3Gu/JrUQ/N4L/9p7nrd6uG7r0j990d7rvjze8+S+1/k7o+l35+6/8rdt7r7RUNhv9ePj3PhR1G4CqsAl4/etV7SyafXn3mEsvBy9/zpqXvqBpc/HhS+r7nNr37qjPs3p+4HHTD5Fbr7Q39Sf85HzTb/gcsOlYXB1G0VzcyaLr9voFn50v+r3fGz1P3MNgRIga4YuftWSbem7gOYrtUjt2+QtDp1HygnprAAAG0hQAAAbSFAAABtIUAAAG0hQAAAbSFAAGAWcfdo3+uzMkDMeFwMgP5kZgti1YoWIO4+N1YtM5sTqxYA7EkIIdo9dyGEfaLVilYo4ptydwIEQM+I+QPa3feOVSvmCGTfWLUkESAAekm0aSVJsy9AIo9AFsaqBQB74u5Pi1huS6xCMU+iD8QqZGZHxqoFAHtiZvtHLPdorEIxAyTam5K0LGItANitmD9qQwgbo9WKVijim3L3Qy+66KL5seoBwP9mbGxs0N0Pi1hy9o1A8jyPFiBmFubMmfOCWPUA4H+zePHiFyvehT0u6SeRasULkFar9VCsWtv9UeR6APBrQgivilXL3X9arVZn3whkdHT0J4o4tDKz142Njc3KO+0BlMPY2Fhw9zfGqmdmt8WqJUUMEDNzSXfGqifpqUuXLn1xxHoA8D8sWbLkFEkHxqqX5/kdsWpJkdfCcvfbY9aTNBK5HgBIksbGxiqS/ipmzSzLbopZL2qAmNn3Y9bL8/z1jUYj5tUPACBJWrJkyXmSjohZs9VqfSNmvagBkuf512LWM7Pg7n8ZsyYATE5OvsTdo44+JN02Ojr6QMyCUQOkVqt9393Xxqwp6Q2NRuPYyDUB9Kl6vf7bZna1mQ3FrJvn+ddj1pPiT2G5mUUdhUjK3P1f6vX62yLXBdBnJicnT3b3NZIWx66dZdnVsWtGW6N+B3e/xsxOi1x2UNJUvV5/dQjh7OHh4Xsi1wcwi61atWr/Vqv1AUmnJ2rhvnXr1q2JXTT6k/smJiaGQggPKEFCb7dV0uXu3qjVarck6gFAyY2NjYVFixY9P8uyP8vz/E1mFu2ZH7ty9/FarfbXsesmefRrvV6/WNK5KWrv4geSvuLuN7n7rXmebxgcHNzabDYro6Oj61M3ByC9j3zkI88YGBiYm+f5QklPN7NnufvzJP2+pKWJ25O755VK5ZlnnXXWfbFrR5/CkiR3/5iZvV2JAmwnR0k6ysxkZgohKM9zhRDUA70B6AEhhH/P8/yAHf/b3VO282vM7HMpwkOKfBJ9h1qtdnue519KURsAZhEPIfxNquLJ1ooys/e4e56qPgDMAlcNDw//IFXxZAFSq9VuMbN/TFUfAMrM3ZuS3p+yh6Sr1YYQ/kpPXBUFAJiBEMIlIyMjtybtIWXx4eHhOyQlm78DgDJy93sff/zxpKMPKXGASNL69esvkBR1BUkAKDF397e9613veix1I8kDZHx8vGlmp0vanLoXAOh17n7Z6Oho7CWhnlTyAJGkarXQeFxLAAACoUlEQVR6m6SzU/cBAL3M3b/x0EMPnZe6jx16IkAkaWRk5KOSLkvdBwD0qPvd/Q3j4+PN1I3s0DMBIknr169/h7tfm7oPAOgl7v6AmZ3ca0ss9VSAjI+P5yGE0/I8r2+/xhkA+plL+uS2bduOrlarUZ/oOh1J1sLanWq1+qik2sqVK+t5nl8i6cTUPQFAbO5+t6S31Wq1qI+pnYmeGoHsbHh4+I6RkZE/cPfXSOq55AWAbnD39ZLOX7BgwZG9HB5SD45AdlWr1a6VdG2j0fhdSWPufnzqngCgCzZKWjlv3rwPnHnmmRtTNzMdPR8gO1Sr1W9JOqHRaPxunudnSXptyge4AEAR3P12M1s1MDBwxYoVK36Vup+ZKE2A7LA9SL516aWX7lupVN5gZn8q6QWJ2wKAaXP3LWb2RTNbVa1Wv2FmvfWQkWmaFQ9Nuuyyy54yMDDwCkknufsrJe3V6TZHRkZmxd8GQGcmJyd/YmYH7Plf7tHjkr5hZldVKpVryjbaeDKlG4E8mXPOOWetpNWSVl9yySVzh4aGXujuz5f0O5KOkXRQ0gYB9KN17n6jmd3o7jcsWLDgxjPOOGNWLdk0KwJkZ+eee+4mSWu2vyRJU1NTi7dt2/ZMSQe5+8FmdrCZLZa0IM/zITPbZ6dNPGJmrchtA+hRZvYvZnZwnud7u/u8EMI8M2u5+yOSNpnZ5jzP14UQ7s3z/F5J95rZ3SMjI/en7h0AAAAAAAAAAAAAAAAAAAAAAAAAAAAAAAAAAAAAAAAAAAAAAAAAAAAAAAAAAAAAAAAAAAAAAAAAAAAAAAAAAAAAAAAAAAAAAAAAAAAAAAAAAAAAAAAAAAAAAAAAAAAAAAAAAAAAAAAAAAAAAAAAAAAAAAAAAAAAAAAAAAAF+P8LIpCJIlD8LgAAAABJRU5ErkJggg==;" parent="1" vertex="1">
          <mxGeometry x="10" y="10" width="60" height="60" as="geometry" />
        </mxCell>
        <mxCell id="J7JJR4KkGGpUHsGLaVsS-30" style="edgeStyle=orthogonalEdgeStyle;rounded=0;orthogonalLoop=1;jettySize=auto;html=1;" parent="1" source="J7JJR4KkGGpUHsGLaVsS-3" target="J7JJR4KkGGpUHsGLaVsS-4" edge="1">
          <mxGeometry relative="1" as="geometry" />
        </mxCell>
        <mxCell id="J7JJR4KkGGpUHsGLaVsS-3" value="" style="shape=image;verticalLabelPosition=bottom;labelBackgroundColor=#ffffff;verticalAlign=top;aspect=fixed;imageAspect=0;image=data:image/png,iVBORw0KGgoAAAANSUhEUgAAAZAAAAGQCAYAAACAvzbMAAAABHNCSVQICAgIfAhkiAAAIABJREFUeJzs3XecVOW9P/DP9zmzwDZ6EykiSNm+LCrYEMWGLSaK5lrSTEwz5RqvmnuNIU2j+SUxmtzEeM2NPRijCfYCwYbKLstWQBBEpEiH7btzns/vD9CrhrIzO3OeMzPf9+t1/tGd8/3MMDPfOec853kApZRSSimllFJKKaWUUkoppZRSSimllFJKKaWUUkoppZRSSimllFJKKaWUUkoppZRSSimllFJKKaWUUkoppZRSSimllFJKKaWUUkoppZRSSimllFJKKaWUUkoppZRSSimllFJKKZUc4jqAUq6U1DQP7ZUlh/vEcBBDhBwKMYMt2B8iOQBzxUffD/6enkQMmP/RfZCwsNgNADQSFbBJgJ0+pMkT7iFkB4H1nmBztBPvTXgre/Mjc8QP+rkqlQzaQFRaK67dNaC36V1gxRYCmAxgPIixJI4QQW7QeSjwhdhEyEoIVwKynGJX+FGzoq4k572g8yjVE9pAVNoort01oJfJOjoKHGOAoyGoEOJw17m6i8AWQiqFXGKAJRGw8o3ivPdd51LqQLSBqJRVVt00RLK8aQIcD+EsEuUCGNe5EonEGhG8QOBVG5UXa8pyNrjOpNQHtIGolHHRPHqrJrcfC8PZQswGWCYZ9B4mYAVSS+AZY/B41eTsJRCxrnOpzJUxHz6Vmgoa2Cvbtp5mRS4EeK4Ag1xnCgsCG0XwDxCPt0vOwsZC6XSdSWUWbSAqdC6aR291YetpAvksyfME6O86UwrYZoGHAbl3WVHOEtdhVGbQBqJCo6KuaZIV73MQXp5KF7/DhsByI7gXBn+umpy7yXUelb60gSinKiqZFe3dfoGh/w0xcpLrPOmEQKcAj1qaO5cVZ7/mOo9KP9pAlBPH1jUP64R8TQRfAXCY6zzpjpSlYnhnO3Ie0GslKlG0gahAldS0j5WI/x2PuBJAjus8mcaS71PkV5H2nDuqpkqr6zwqtWkDUYEobWwu9Cg3ErhQCM91nkxHYIsFfpkXafvdq5MGN7nOo1KTNhCVVCU17WMjnn89BV/SxhE+FthB4Nb+uTm3Lxor7a7zqNSiDUQlRXFt68iIwY/3jajSxhF2grUC/ldVQe7DenOi6i5tICqhSmqYK17bf3jg96DXOFIOKUvhyXerC7Jfcp1FhZ82EJUYpJQ3tF4O4GYBRriOo+JHgCJyXzRqr60tzdviOo8KL20gqsdKl3dMMF3R34rBLNdZVOIQ2CWQH45rzL5T1zBR+6MNRMVt2mJmt/dt+6Gx/C4EWa7zqOQg8AZgv1BdlL/cdRYVLtpAVFzK69qmC3gPhJNcZ1HJR6DdAj+c0JjzCz0aUR/QBqJiMmMt+zS1tP2Qwu/p6KrMQ8Fiz/e/UFnSd6XrLMo9bSCq28rrW0oBPChAgessyh0SLUbwjaqi3D+7zqLc0gaiDo2UKY2tXwbxK+jQXLWPFbnPRrO/VlsqLa6zKDe0gaiDOnr5nkFdfuReA852nUWFD4FGazinpiCvwXUWFTxtIOqAptS2VNDgrwIc4TqLCrVWn+YLNcXZ81wHUcEyrgOocCqvb7mCHl7W5qG6IceIfXhKfestIPU7JYPoEYj6mBkLGdkztPV2Ib7uOotKPVbwNxvNuUKvi2QGbSDqQxWVO/rZ7D7zhDzddRaVugipQQSzqyflbHSdRSWXNhAFAJha236kb/z5OkRXJQKBdZ71z9D7RdKbNhC17/4OeUbA4a6zuERIE8D1sNhojWzwwA5f0O5R2gBAhLuiBPf3WBHJJ5gvkDwhBwMYBsFIEMMEiAT6RMJjmxE5u7Iw503XQVRyaAPJcGV1bTOMsX8H0c91liBQ0AaiHpBlAtRQ7AqQGzskb31joTQnviDN1Pr2w6OeP9FYMwHgJEKKAFYI0Dfh9UKGQLMAFy4tyn3WdRaVeNpAMlhZQ+v5Qj4sQB/XWZKFRD0MXgTN60C0Znxj3luhmMuJlKl1TRO6PDMVkOMN5BQhJ7qOlQwEOgG5sLooZ77rLCqxtIFkqLKG1guN5YPpNosugY0i8kLU2heyIvJC1eTcTa4zdVf5itYR0mVPgZFzAJyZTkeF2kTSkzaQDFRW3/ZZgb03Xc7NE1hHkb8QfKimMHeZ6zyJUNDAXtlsPZmCCywxxwADXWfqKQKdELmoujDnH66zqMTQBpJhShuaLzWQP6f6TLoEtgjwiIF5qLKwz2sQ2e/F7XRQ0MBe2dI22ycvF+IcAXq5zhQvAp0CfGZpUe4TrrOontMGkkGm1LVeQOG81D7ykAUU3N53S/ZTi2ZK1HWaoB1b1zysU+RKEFeJYJTrPPGgoM3AnF5VmP2K6yyqZ7SBZIiKuubTrMh8AXq7zhIrAh0CeZDg7dVFuTWu84TBRfPorS5oO5/gdQY4xnWeWJHY6UV4UuXkvHrXWVT8tIFkgPK6tumAfV4Eua6zxILAdhHcEY3yv2tL87a4zhNWZY3Ns8Sa7ws403WWWFCwwRpzQs3k7HdcZ1Hx0QaS5kqXd0wwfvQ1AQa5ztJdJFpo5NdeW/ttVVMH7nadJ1VU1DWdbMXcIsCxrrN0F0VWRv3O6XUl/Xe6zqJipw0kjZVVNw0xWWYxgHGus3THvgusf/QEP1lSmLvZdZ6UREp5Q9unBfZngExwHac7rPD5fltyZ2fiNa1Upw0kTU1bzOzO3NYFMJjmOkt3UPCw53v/WVnSZ43rLOmgoIG9stj6XUPcmCKnLu9YWpT7LdchVGy0gaSp8trW+8XwUtc5DkmwFsTXdKqL5CiubR2ZZfgrABe6znJIgquWFube5TqG6j5tIGmooqH5GlJ+4TrHwRCIQuTXpi37pqqp0uo6T7orr2/9NGl/Z0SGuc5yQESXETOzsij7VddRVPdoA0kzFXXNp1kjT4f6RkFBlRF8ubIgt9p1lExSsbJpMKPmThAXu85yICTWRyJ++ZLJfbe7zqIOTZefTCMVDW2jrchDYW0eBKwPuTl/S840bR7Bq5qYv21pYe4lAnyeQOJnHk4AEYzq8iP3gtQftylA/5HSxIyFjOwe0vpPAxzvOsv+ULAVwOeqC3Ofdp1FAVNr90y0JvIwwDLXWfaHwHXVRbm3us6hDk6PQNJE09C2n4W1eQCywBiUavMIj8qSvivzc7OnQ+Re11kO4KdTGltTYgRhJtMjkDRQ0dgy21o8ISH79yRgRfCjcQ05PwnFGhxqv8rrW78L8NbwzZHGt6Q9t1wHWYRXqL5wVOwqVjYNtl1eXdiWoyXQbkSuqCrMecR1FnVoFXXNp9HII2Fbg4SC26sLc7/jOofaPz2FleJsl/ld2JqHBXaIMadr80gdVcV5z/vC40msd53lY4irK+qaTnYdQ+2fHoGksCl1zZdB5D7XOT6K4CpIZHZ1YZ/VrrOo2FU0tI22tM8IMNl1lg8J1rYjpyQpa9arHtEjkBR1dEPLcEJ+4zrHR1ng1Yhnp2vzSF1VhdnvRjz/RELCM8yaGNsbbTe5jqH+lTaQFBUFbhfBANc5PmCBVzsl50y9ASz1LZncd7vt6jjFAm+6zvIh8jvl9S2lrmOoj9MGkoIq6lrOFmKO6xz/hy93Ss6ZeoohfdSUD9jFrs4zCCxxnQUABIgIeIfeYBgu2kBSTEkNcyn4nescH7DAq+2SO1ubR/qpKR+wK+L5ZwFocJ1lLzmxtLH1c65TqP+jDSTFmEjbDQBGu84BACRey420naXNI30tmdx3ux+VMwi84zoLAIjlLcev2JbvOofaSxtICimpaR8r5DWucwAAITVZfdrPenXS4CbXWVRy1ZTlbIB4p+2bjsYpIzKsOZrzPdc51F7aQFKIifi/EKCP6xyEbDYi57151KA9rrOoYFQX9lnt0VxAoMN1FiO8tri2daTrHEobSMooq2ubYYhPu84BoBXEuVWF2e+6DqKCtW+djq+4ziFEdpbhja5zKG0gKUOMvdl1BgKWkCuqi3MqXWdRblQX5d4Lkdtc5yDwxYq6pkmuc2Q6bSApoKKx9VNCTHedwwLfry7KedR1DuXWuIbsG2jxgssMAkRovP90mUHpVCahd9E8eqsnty4TQZHjKH9dWpR7keMMKiQqlrccZn1Z6nIetr3LInuTdeYDd/QIJOTWFLZc7Lp5EFjnd3V+2WUGFS5Vk3M3idhLCVhXGfbeXGivd1VfaQMJN1KslRucRgCiHsylNeUDdrnMocJnaWHeAgK3Ow1heUV5Y9sYpxkymDaQEKtY3na+66MPA/xo3+gbpf5Fv9yc7xNodBZAkGVp/91Z/QynDSTErOX3Xdan2EVHNub8zGUGFW6Lxkq78XA5gairDIb4vN6d7oY2kJCqqG+eKcDRruoTaDaIXKFL0apDqZqcuxQiv3ZVX4C+rX6OzpHlgDaQkLIQp8t4GuEP9WZB1V2mLfsmCNY6C0D7LZD6fRYwfcFDqKSmfSwEZ7uqT0Fd3pZctxdHVUqpmiqtpHzbVX2BHFXR0DrLVf1MpQ0khCKe/00hPBe1CdCj+dqimeLsnLZKTdVFOfMBedZVfQq+6qp2ptIGEjLTFjObwBdd1afIn3TUlYqXWHstBU6um5E4++jlewa5qJ2ptIGETFvflk8L0N9FbQvs8CL+dS5qq/RQVZJXZyF/clFbgF6+H7nERe1MpQ0kZDwaZ0cfnuC2qon521zVV+nBeLiJQLuL2ha8wkXdTKUNJERKatrHEjzZUfltfby23zqqrdJI9aScjQL80UVtAxyjs/QGJ+I6QCYbv4q98ztaJ1maiZ6xk2n908VRU6eYm3V1QZUoflR+biL8sosF0KLifRbATUHXzUQ6G29Axq9i735dbWWWOJrAMcbiaBoe5Wq01UcR2Ni7KWf869OlzXUWlT6m1LfcCeAbgRcma5cW55UGXjcDaQNJkhlr2ae5uXlaVLyZBjwFwDEC9HKda38ocnV1Yc6drnOo9FLe0D4e9Fe6OKo21htXWdJnTdB1M402kASqaGgbbcHzCHueUE4Mw/rl3bBpT++csauPEudrXav0U17f8ncBzgu6LsVcU12Y/cug62YavQbSQxV1TZMszCUQOY+05QJAUqgvk7hLm4dKFhHeDkrgDUTofwqANpAkS51vuhApX9E6Ar5cAstLRTjFdZ54EYjaqBxRU5azwXUWlb7K61saBZgcZE0K/KjfNaSupP/OIOtmGj0C6aaL5tFbXdh2NoivIsozBDSp3n4FeFybhwrA/wL4eZAFhfCypNfJAB4Lsm6m0QZyCEc3tAzvJK58G61fFmK06zyJJODvXGdQ6c94uM/6+KkE/X0jPBXaQJIqxX9DJ8/U2j0Tu7zI9wx5uQC9XedJNAKN1YU5RRCh6ywq/U1paJkP4pwgaxJYXl2UWxBkzUyjd6J/QkVj67FTGlr+5huv0SOvTMfmAQACuUubhwqM5V+CLinA5PIVrSOCrptJ9BTWPqUNLWUe8GNangOk96EZBX4EwX+gVeaSjs75tk/vzqDvhWJUZgB4KMiamSTjj0Aq6pomlde3zDPE0qAPsV0RyqIlhbmbXedQmaNq6sDdhLwQdF0j9piga2aSjD0Cmdawe2A7I3Mt8NXAL+65Jnr0oYLngY8RmB1kTRJTg6yXaTLuCGTGQkamNLR8pQORFQb4ZsY1D6LLM/6jrmOozNNp5ZmgawowZcZCZtZnPEAZ1UDK69qm7xncWg3iD0IMcZ3HBYq8sGRy3+2uc6jMU1eS8x6B5QGXzWka3KIjsZIkIxrIMau2951S33InxL4igiLXeVwyevFcuSR4LuiSPkRPYyVJ2h/aVdS1zI628Q8QjkznkVXdQaBDOjofd51DZS76slDEfjvQoiJ6BJIkadtApi1mdlte6y0WvFpSaXbDJBLgqaqpA3e7zqEyl6VdbAL+NHrkxGArZo60PIVVVt96dEduS7UHfkvS+5aOWOnpK+VUbWneFpKBrtNBQBtIkqRXAyFlSn3LtUL7moi+aT6KREvU5j7hOodSQvNGwCWPHL+KaTmjhGtp00BKq3f2n9LQ8hjIWzNuaG43iMgTtaXS4jqHUmJYFWg9wMvtahkfZM1MkRYNpLShpcyL9KoEcb7rLOElevpKhYI10hB0Tc/K2KBrZoKUbyDl9U2fMT5fATjOdZawIrCnV3N24DdxKbU/njWBNxBY6KSKSZDSDWRKffO3QZknglzXWcLMAo+9Pl3aXOdQCgAqi/q8ByDQ0YC+4eFB1ssUKdlAxq9i7/LalvtB/FpS9DkEKQKZ5zqDUh8SIYjVgdakHoEkQ8p9+R6/Ylt+fkfrkyK81HWWFPAuBU+jI+d510GU+igrsi7IekagRyBJkFKjlcqqm4a0dslTAurUBPsQ6AS4GjDLBVwJYDlhVnSY5hWNhUObXedTan8M8G6gBS2GB1ovQ6RMA6loaBttff85ydCbggjsgsVK8dDoW1kpkBWIRBv7vZ+/dtFMibrOp1QsCK4P9g5f9gu0XIZIiQZS3tg2hr6/UARpPRSPAAWyhuAKEVlJyltG7FtGZLkuAKXSiSE2M8AOIiJ9g6uWOULfQMob28aI7y8E0q95ENgugldAvCKCKmnvXKpzValMYCE7BQysHgFtIEkQ6gZS3tg2Btb/J4AjHEdJDKILlJdp+KQhnl9anFsPkeA+RUqFhEB2IsAGIkCvGWvZZ9FYaQ+saAYIbQMpqWkeCt9/XlK8eRBoh+AZAH/J6tPx1JtHDdrjOpNSrvk2usPzgh0EuqetfRiAQEd/pbtQNpBjVm3v29WOpwU4ynWWeBHymgB3m46Ov+lpKaU+zppIqwcbaE3x/XfK65rXCbACIg0Eagztm1VFeSv1TEB8QjfV+fhV7N23tfUpGJ7iOkscWq3IPTT8fU1BXvDTNSiVIoprW0dmiV3vOsc+u0lZIoKXxdgFaMt7o2qqdLkOlQrC1UBImVLf+hDAi11HidFuC9yJKG9fVp6/1XUYpcIuZA3kY0i0wOAlA87vtN78upKc91xnCqtQNZDS+ua5HvED1zm6i+BWgfm1dHT8Vk9TKdV9YW4gH8W9V/qrBPI3eubB6oJsvYbyEaFpIBW1zf9mBfenwgqCBHYB+LHpyP191VRpdZ1HqVSTKg3kowhQBK+Q5oGsPm0P6YCYkHxZT6ltnUaxCwXo4zrLwRCwBP7XWtxQW5q3xXUepVJVKjaQjyKkWYQPGiO/ryzIrXadxxXnDaSsummI8WQpBCNdZzkYAks8Y75ZWZjzpussSqW6VG8gH0XIawZyW1VR9j8gEuzQMsfcNhDSlNW3PGOA05zmOLhtInJDVWHOPZn25lAqWdKpgXyAxEpj5BdtknNvY6F0us4TBKcNpLy2+UcAb3SZ4WBILCC9K2rKcja4zqJUOimubR0ZgZ9WDeQDBN41wE/zt+fdk+4TnTprIFNqmk+xwufDuCAUgU4Bb6wuzv+FHnUolXjp3EA+QMgKI/z+0uL8x1xnSRYnDaS0emd/8SI1Aox2Uf9gSFkrxl5aXdx3sessSqWrTGggHyDwT3rmuzWFuctcZ0k0J7/+6UX+EMbmYYH7OyOtJdo8lFKJIsDJ4tvK8trm/y6t3tnfdZ5ECryBlNQ1X+4Bc4KuezAEaIEba0ryL9dV/JRSiSaAB/Cr4kUay2qbLnSdJ1ECPYV1dEPL8C7fNgowIMi6B0OgA5AvLivJe9B1FqUyRSadwtofC/k7ia+k+v1kgR6BRH37m5A1jx0QnKHNQykVJAOeb4T1pXVNn3KdpScCayBT6vecA+CioOodCoG3aTl9WXH+ItdZlFKZR4AhhnisvK75rmmLme06TzwCaSAFDVvyrJXfBVGrO/Y2D29GTVnft1xnUUplOPLLHbnNi8uq96Tc+keBNJA+NucGAUYFUeuQyHUSiZyqNwcqpUKkFJ5Ultc0fcZ1kFgkvYFMrd11pCX/Pdl1uoPEBuPxVJ2SWSkVNgL0peCRstrmW0CG7gbr/Ul6SB+R/xeGWXZJbEEEp1cV9XvbdRallNofAUTA60rrW/5SUckc13kOJakNpLS+eSZA56MMSOyykFOXFeY3us6ilFKHYsgLo1ktC45evmeQ6ywHk9QGIpY/S+b+u4OAhTGX1pbm1bvOopRS3WWEx3Z1mVcqGtpCN2vHB5LWQMpr95wnwLRk7b/bRP5jWXHuU65jKKVUrASc5PvRV8vrmya7zrI/yWkgpCFlblL2HUsM4L5lxXn/z3UOpZSKlwAj6eOfFbXNxa6zfFJSGsiU+paLRFCWjH13F0Xe7Jef9xWXGZRS+9ers73JAvcDWEwipafzCIIIhvrkCyU1zUWus3xU4ufCIqWstnmpywZCYov4Xnn1lJyNrjIopbpv4opt+X387HHi2/EExhmRcbQcJ+A4iowK47pBLhDY6oMn1pX0Xek6C5CEBlJe23IWYN1ecyAurC7Nf9RpBqVUQlRUMkt67R4VReRIAx5pIUcKeCSBI0GZJMJc1xmDROA9iUROCMP9bAlvIGW1TQsFODnR++0uAvctK8m/wlV9pVSASFPR2D4ySn8cfY7zRMZZwXhDjiNwlAB5riMmAyErvE6eWDU1f5vLHAltIKXLdh9jjHkjkfuMBYkNvvjFdSX9d7rKoJQKCVKm1u0e68MU+SKFHlBCiykimOA6WiIQeK1fft6pi8ZKu6sMkUTuTIz5ZiL3FwsCFDFfrivJ1+ahlAJEWAmswd7tHx/8533rEp1oIbMMebYIDncXMn4CHLenqflekBdDhI4yJEZFZdNgvxfWO5u2ROSP1cU66kopFQNSKmqbjukycrkhLxFIqO/83h8KblpWnP8jF7UT1kDKavdcK5BbE7W/WBDcTt8fX1M+YJeL+kqp1FfQwF5Ztnm2oXwO5NkQZLnO1B0EKOT51aV95wddOzENhJSyuuZVAoxLyP5iLS/y7WXFeb9xUVsplX4qGtpGR/3oNQa4EkDoJzUkscvz7NSgJ4tNSAMpq2uaIZb/TMS+YkXIKq8rr7BqqnS5qK+USl9l1U1DYPgtAN8I03Lc+2VR07s9f/rr06UtqJIJuTlHyMsTsZ94GOI6bR5KqWRYVp6/dVlp3xu9ruhYiPwSRHi/awxKO3Kbfx5kyR4fgcxYyz67dzdtEkH/RASKjSyuLsk73tUIBKVUZimr3nOUePIrkGe7zrI/BEji3Jqyvk8GUa/HRyBNu1vOd9M8AEv7HW0eSqmgLCvvu6q6JP8cCM4nuN51nk8SQERwd1l105Ag6vW4gfjGXpyIILHjizVl/d50U1splcmqS/r+wxeW+oJ5rrN8kgDDaXB7ELV61ECmLWa2EKcnKkwsaOSXLuoqpRQA1JX031lb0vdiiswhEapbCAz42bLapvOTX6cHOnKbThMg8InMCKxYVpT/dNB1lVLqk5aV5D8SMbYCZLXrLB9D3nnMG9v7JrNEjxqIT3Gy3rlQfq3XPpRSYVFZ0n+NL20nAnjcdZYPCDCyK7vXTcmsEX8DIY2Bk5EI20y06T4HdZVS6oBqS4e3VJfkf8aKhGcVVMurk7kcbtwNpHRZa4kAQxMZpjsEuKtq6ojWoOsqpdQhidiakvzvichVBHzXcSDIgsWvk7X7uBsIjT8rkUG6q0twr4u6SinVXUtL8u+i8HOhaCLk6WV1e2YnY9dxNxAjEngDIWRpWJZyVEqpg6kp6feAobk0FE3E4haQCV8WOK4dFjSwF8gTEh3mUBjCMddKKXUgS8vy/gLBlwhYlzkEKC6r3ZPwe/biaiDZ0abyoIfvEiD86F+CrKmUUj21rKTvnyFytescgJl70Tx6Cd1jPA/ygWkgEOQmkNdryge8E09epZRyaVlJ/u984LdBf29+7DuUPGr1xJaLEvm84mogAh4d9LMnqEcfSqmUNWBH/nes2BecdRAQsPZ6kAlbSDC+iyrEsYkK0F0RsYGvtqWUUomyaKZErWAOgbechRCWltY0JWxEVswNpLh21wAGvPKgBddUlvRfE2RNpZRKtLqS/jsJ79ME2p2FEPudRO0q5gaSRa9IEriWencIzPNB1lNKqWSpKctrEMj3XdU3lFklNc1FCdlXrA8gbGHQZ+4gXBTn81NKqdCpLs2/nZAFrq6GGNqrEvE8Ym4gvpWiwK/7gK/H/QyVUipsRGzUi34exC4XHYTkFRWVG3N6+jRibiAGKOxp0VgQeL+2tP/aIGsqpVSy1RcPXG9hrnVRW4C+0UjuBT3dTzynsMYH2SoF0FUHlVJpqbYs7x4C1U5OZJFX9DR/TA2koIG9AIzoadHYsC7YekopFRARK7DfdVT91NJl2w/vyQ5iaiDZbXtGSQLWUY+FULSBKKXS1rLyAYso8teg6wrgCbM+05N9xNQMuoRjgj7Kilq/oSdPUCmlwo7C/yDRGfxZLP/TPckdUwMRw9E9KRYrAuyF9reDrKmUUkHbO1BIHgq+spxQUtMc98KAsTUQyJB4C8Vpq64+qJTKCMa/jXuPDQIjgOf50XPjfXxs1zMshwQ8UuCdeJ+YUkqlkpqygQ0QPBn0aCxfeHq8mWNrIAaD4i0UF8GGQOsppZRDtLw16JpCnBrvaoUxPYgWgwK9wGOxNZ4npZRSqai2YsDLsFgW5PesEIPKlu2piCdvjF1HBsRTJF4Gsi3Iekop5Z7cH3RFkjPjeVxsDYS2dzxF4kXB9iDrKaWUa4z4DxPwg6wpltPjeVxsDURMdjxF4mVgdQSWUiqj1JQN2kDgn0HWpOC4eB4X2zUQ2N5Bjg+wFHeLriillCMC3B/kdy2AoYWVu2NeKDAS45Pq/WG5ANCgI7BiKq2NWbi2z4D+g/M9vz3Slj14e2OhdLrOpNSBRBh5oku6bJBTRxkvWg4gphu3Y2ogJKJBLkVofOkVYDmVRgoatuRF2rI+LcBsC04XYBT9LonCQ1bbTpRW7gABC2A3AIDSDGA3hbsMsIuQjRBsFGvXQ/AePPNWTVn/dyFinT4xlRGqpuZvK6ncUQugLLCivhQDiGlOrliPQHbHFKgzRrnuAAAgAElEQVSHrDDoO99Viquo3NEvClzHNnxTwHzgwD/h9v262zuyUDgAwCj58P9x78G27PsvPlFStbNdKne8BchykEsFXJrFrOolx/TVwR4q4Qh5UcDAGogBimN9TGxHIOBuCXQ59MCnTlEprGTpjjO7LP5HgBHJeJcK0AdACcASCC4mBJ0SRWnlzrcAvETipSzhoqqpA99NQnmVYTxwAYFrgqpHMOZ10mM8ApFAj0BAPQJR3VNSueMaWNwa9HIDe3ECgAkiuDIKoLhyx3JAnoKRp/3e/V7W6y0qHp3Z0Zey2iJdALKCqCeQI2YsZGTRTIl29zExjsLCrphT9YS1gc7+q1JTaeWO6wT4hZvm8a8MMNmA1xhrX4i07dxcUrnjnpKlO86sqGQgXwQqPTQWDm0msCLAklk7c3aPiuUBsZ3CstwhQZ7BghwZZDWVesoqt51vyZsDfVvGQPZeY/kCfHyhkzu2Fy/Z8aCh3FNzzIBlrrOp8CPZIHFcm4i7nkSPBLC2u38f0y82I3gv5kQ9M0p/takDKatuGkLij4JAL8zFzQgGGfBqiK0uWbKjqnTJjqsqKjfmuM6lQkwQ6IJ61sgRsfx9rKew1sfy9z0lgog1W8cEWVOlDka7fpCqAy0EnALw913svb50yfZbipbsiOnUgcoMxgbbQDxiWCx/H+OCUsE2EACwUS+wwzeVOsqqm4YQ9suuc/SUAAMBXOeBb5dU7rin7PWtR7nOpMLEBtpARCSm1QljO4XlMehTWICgNPCaKvT8aOdlAgl0cs8kyxLyC9Yzy4ve2P5A8ZJtE10HUu7tamkOdEi4JZN3BFJdPmgzwUCnF7GQ4O7EVClDyLNdZ0gGATzP4N+EUl+8ZPt/F7y5ZbjrTMqddTPHthNoDqqeQGJaNDDG2XjFgrIq2MVOOCWmjCr9kQaQaUG+D4PeBIgY4qsReKtLlmz/wZiFa/sk8iVUKcRie3DvPebGEi32cfPC5UF+kgQcVb5055iYc6q0VVG1c6SAuc6/5YN5/+cKObdfbt+Gkje3nZu4V1GlCjF2W2DvOSK5DYSWjUF/jKJR/4RYc6r0FbXRge6/2oPdAB4J4B8lb27/R+ni7Ycn4GVUKcJa2Rbg+yy5DcQYb3msj+kxEW0g6kM0Eoo7zt3gudZjQ+Eb278EMiXuf1E9Q5HArjszxmlTYv4gWkFjrI/pMfK0wGuq0Ioa7nGdwSUB+nnCu4vf3P50ReXWw1znUcklCHBOQIOYVoGNuYFMWjOgkWRzkMfvQowrfXPrhFizqvSUbYesI9Hp/LyS402AMzp91Oq1kTRHGRbY+8pKSyzRYm4gj8wRH0BVrI/rKUszO+iaKpyqpkoXgRrXOcJAIINJ/L34jW23FzRQF2BLQwQHB1guuUcgACDAG4H/3LI2Lcf9q/gY4FnnhwAh2QQUAb8Vad6+sPyVbSN6/OKq0BizcG0fA/YN7P1ExnTPSXwXI8W8EdfjekJwcsmrm2O6zV6lL0Pey73vevUhHhfNslUlr2/RQSdpIj+vX6BzvVG4NZa/j+8IxEfgDUQEEWZFLgy6rgqnZdOGrCLs465zhI1AhlPkxZI3tl3hOotKBD/QJS0M8H6Mfx+7mumDNoB4K/CjdYuL48mr0hNt5D8JdITgLFKoNiF6kfzfwte3zdWhvinOR2mg7x0bQAMBACt4Id7Hxo8nFr66ZVzwdVUYNUwftNxCfuA6RxgJIB74g6LXt/1pxkLGtHCcChMJdjJZkS2x/HncDcQTE3gDEUAQkSuDrqvCq+GYQbcR8rDrHGFlBJ/bmb3tkfFPrUqnmYszhoCBNhAK18Xy9/Hf0ZtlFhLw4358nAz5eV2lUH1IhL0ig67wRea5jhJin8oZ2P+pgoVb8lwHUd2378ixMMiaWR5Wx/L3cTeQmvIBuwAuCfoErwDDO/2tn4o3t0o/VVOlq+GYQZf4wI0ko84vQoRzO8XLwRO6hG7q2Jn3/iQB+wT1HiHYXFUxeHMsGXs0p5AAf+/J4+Nm+T0ndVV4ibBh2pCfWIOppDi4Phd+Qszoipr50xavz3adRR0arTcryHoCeRsijOUxPWsgRv5GAkFvgBxTtHjrjJ5kV+mp4dihNXXTh5xmxRxtrfzWEmtdvEfDu5lTmqTPY3rXevgxirOCfG9EyZgnyu3xEL+i17bUiaCop/uJFS2erD9+6DlB11Wpp+j194cZyFGgGUDxjaXZ7UHyKXaUT4yAyCjj+yNhzGgA4yQBn4uwo+DB+mOHXBbrL04VjJKazbm21WwXILjBD4Lr66YN/XksD+nx8D4RPgpI4A1EDM4ueX3zsbXThgd/V7xKKfXThr2Pbt4gNfGVbfm9I7YUkAoSFaA9HiKB3swVBCH+reD1bbsagW+4zqL+FdsipwpsoCPnrKA61sckYnz4owBuSsB+YubDmwvgTBe1VXpaecLgJgCv7NsAAKVvbp0Q9fkpCD4lxLHSw1O/YeGBXy96fevK+mlDfuM6i/oknhV0RS9ql8X6mIQcqhctfr9KACdrl4sxJ9UeO+RlF7VV5il4c8twsTxXiIsAzEr1010kojCYXT9t2POus6i9KiqZ1dG15V0BhgdVk5D19dOHjo71cYn5JWXNn12NTqRvfwUyLX4RqvBrPGbo5oZpw/5YP33Y6RYyAcDPSexwP0o3vk2ACCz+WvDGpoJkvF4qdh1dW84RYnig7wMfL8WTNSFfvNGszgcIdCZiX3GoKFm89TJHtVUGa5w+dHXd9GHXm1yOJvBVAg2uM8VDgL7GN4+U1GyOaT1slRxCfDnomjSM6yxOQhrIimMO307B/ETsKx4WvHX8G9v7uqqvMltt6fCW+uOG/aF++tBiQOaQeNt1plgJUBBtNXe7zpHpit/YPpLA6cFX9hbF86iEnfrxKH9M1L5iJcCwbN//oav6SgEARFh33NBHbP9tBaT5NoGY1lZwzSMvKX7t/a+4zpHRotErBfCCLElgc/30QSvjeWziLgCSUvTa+w0CTE7YPmMpD/iewXE104e/6aK+Up808ZVt+b3E/0+S14gkZMRj0hFoo2FFw/TDYr6pTPXMmIVr++T3yl4twOFB1rWQPzUcP+yL8Tw2cRefRWhg7kjY/mItD3jW4u6Chga9w1aFwsoTBjfVHT/sekSkgmDMY+xdECBbLB7Qz1Hw+vXOviro5gEAHuTJeB+b2NFLLfZeUHYmdJ+xKcauQbo+hAqV+mnDam3/HdNA/BhAl+s8hyKQcm/noP9ynSOTVFRuzLEW1zso3dUa8eIewp3QBlJ7+vAW38DphTgDXF/82qaTXGZQ6pMaCws7604Y/gMj3rEWWOU6z6EQuKH0ta3lrnNkio5O7+siwd338SGLRauPHbQn3ocn/v6JDvmlJdtIwsUG0rM+HihYvH5gwp+bUj1Uc9yQ6o5I1lSf/Lurz0i3PkdgxLf+XRfNY6AXdDNRyXObc2nttU7+rYGHepI94Q2kcebQzYDboxARjDR+5E/Q9aBVCK0+dtCewo3DP0PBz7n3Vq6Q4tT6EZuudp0i3dlcXC/A0KDrEugUdDzWk30k5Qu2+I33Rtoub3WgM0nuhw/cuPyEw37iMoNSB1P06uaLSXuPQEK50BOJ5qhkTVx5wuCNrrOko5JXNxf5ZJUALgYt/KP+hMPO78kOkjIFSN2xI98jeE9gE9kfYDPk3IKXN+lkiyq06o8f/hdj5SySTa4/L/vbBMzLYufPXL9OaYk0fpR3CdnLxb+tD3mgp08haXNIGcubCbYla//dIYAR4cMlr24OfLp5pbqr7qTDXjLinU5il+ss+0Pg8qJXNk11nSPdFL76/tfEcLqL2gS2yIDtj/d0P0lrIPUnHb7ewtyerP13lxD9fGufmPTS1sNcZ1HqQOpOGPa6EcwisMN1lk8SwFjyl65zpJOilzaMAq2zIzsR+d/GwsIez1+Y1Flsc9p730Jiq/MZR4kxHrrmT3xlW34yn69SPVF34ogqiD2F5HbXn5lPboY4sfiVTYGvUZGOKiqZRZgHhejr4t+SBG1XNCFTTyW1gVSdNnA3yLnO3/0gBKyI2I4nKio3hvJipVIA0HDCyBoD82mCHa4/M5/cGLU/0pGNPdfWtvE2gT3B4Xfhs40zR61OxHNJ+joafXI33QXBimTX6Q4BTmpv5d/GP7XK6egwpQ6m7qTDXrKQK7n3Ex8eBlOLXtn0KdcxUlnRSxsuNsS3XWaw5G2J2lfSG0jV1Kld1vIbJBiCH1EQ4ow+ubmPjlm4tk+yn7tS8Vp+0oj7QfzI9eflXzaf30/uM09fBS9vKqDF3U7//SwqG2eMXJCo5xTISn77Aj/g/t3/4at4dq7JeqLkOV1AR4VXw0kj5jJUnxsCwqkFi947JdnPPd0Uvfj+MPGjfxdhnst/P1+QsKMPIKAGAgBexLuGwM4QfARAAAKc6veOPlv88roByX7uSsVFhF6Hd5UF3nL9efn4Z0f+I8nPPK0Uv7xuAE3XsxAZ7/LfzYKNRe+PeDSRzy3QC2IFi977igB/CLJmNyyPWm/2ypmHveM6iIrf6398f1jUegVGMIHABEMOpdhcwOQD6GfJDiOmBYI9AHaDXAdypSXeGjBwyPLCOeJqSeZDKlr47lQa8xqALNdZAIAArbUlK2aOrnedJexKntucG+0dfV4AJ/d7fBQNLmo8ceRfE7nPYEdUkFLw0obnhTg10LqHQrwPw3MbZoxa4jqK6p7KP+zo1yH+WSBnWuBkASbEvTOiTSCvwWChQJ477iuDQ/c+KPjnezcIEJ47wonfNswc+U3XMcJs/FOrevfKyZ4vwGmuswBY2jDj8KkQYSJ3GviQvKKXNoyy1tYK0D/o2gdDoM1Arqo/eeR9rrOo/Zs3j97hO7ad4ZOXC3k+BNlJKWTxlhjc3wV738yvhePI9KJ59BqHblgAMBRLFRDYA/Y+vHHm0GbXWcKoYOGWPEjHPAFCce+MFTl7+YyRTyV6v07GdE9a9N4VHvlnF7W74Y4+ee9fUzV1augX/skUlX9gVnt062et8PsAJwZWmLAQeUrg//DEr4+oCqzuAZQsemdslKZRIKEYQUiRqxpnjLzLdY6wKVi4djhM1hNCVrjOAgAQebZhxsikzAno7Kaggn+uf1SIT7uqfzAEFkeMf2ntjCPWus6SyUjKy/+9+Qpr8RMRjHQZBZDHYPG9GVcPd/qeKFj43o8FDMVqgQQWN84cdZzrHGFSvGDDRF/s0wKMdZ1lny4Yv7RhxhFJWePeWQOZ9MKGQSbiLxVitKsMB0PBHlC+3jhzVI9nrFSxW/C7DROFuBM0s1xn+RDRBuBW5LXfMvMLY9tdRCh5bnNuNNK5UiT4tbM/iQCFOKrhlNFvu84SBgUL3z0BxOMiGOQ6ywcI+XXjzFHfTdb+AxvG+0krZh2+nTQXI6RrRAvRV8D7Cxa++1DZy5uGuM6TKUjKgt9suha+1NHKLNcr83189TZmE7yJTb2XLPrtpskuXp/a04e3UIyLtbP/hQBCyKWuczh3E03BwnevF2BBqJqHYGN2tPOHyazhfF6byS+++x0j+JXrHAdDYBtEvqNHI8n1wp0bBtHKnw14tussh0S2Ccx3Tvn2iOCvAZBS8M91rwqN+6Gh4MrGU8ZMcp3DlUkvrTvMi+JeQMJzpLyPUD5df+qoHq04eMgaydx5t5BSsHD9XwXhvB7yCc+K+N+pnzk2FHN7pZPn7tg8Vmz0WQGOcp0lJpTfvLxzxHfnzhUbZNnJC9fNMpTng6x5QJ4tSNY59jCbvOC92QL+ScDAl6M9FGvlr8tnjboo2XXcNxAAE19Zke+1Z78qBsWus3RDlwXuyPGjP6o6bdxu12HSwXO3v1sEi2cBGeE6S1ws7h+Y9/4Xp14V7Mi9ghfeWSpGyoOsuT+k3NB46uhbXOcISsHCtcNB83MAl0tIvkM/isAOiC1snDl2c7JrObsG8lErT5jURPHPBfG+6yzdkGWAf28zkbcLF667rmK+Tg/fE8/+Yl2F9eVVUkaEYAXX+DbBZTtahj08bx69IF87ES+h8xrFSwQ9Wlc7VcxYyEjhwne/DWtWCHBFGJsHABiRrwfRPICQvQBFL647zgdfDMs49+4gsdEIf9Zs+D/rZroZmZOqnrr13XHGw6sAhrnOkhhy7xn/PvLzkuC7fQ9kxkJGtth3VwlwRBD1DoSA9U3WsLdmjtjmMkcyTX5h3SwBboegwHWWg5O7G08d/eXAqgVVqLsmv7juMoD3hrW7HwiJLRC5Q7rM7xrPHBW6ZUnD5sVfrxnW2WUWQyQs4+UTg5h71rVjfhhUuYIF664G+Zug6h2YzGk8dcwjrlMkFCmTF647S4AbQJzgOs6hcWXEz66oPX14S1AVQ/klPXHBums98lbXOeLUDJEHaPmH5bOOqHYdJoxuuonmmNx3n4bwdNdZkoA05lPnXDP6H0EUO/L5t/v1Nt5mAdwetYv8ofGUMV91miFR5tGbNOidiwS4XiClruN0B4FWD3Z6/alH1gZZN5QNBAAmvrD2Fg9ynescPWEt34Bn7s7qhUfrThyz03WesHjitrU3gviR6xxJtEMMp5z9vSPXBVGs4IV1fwN4QRC1DoTkquWnjY1/QssQKH5h3ZEWuNSCnxNgnOs8sZHLGmeNCfw2g9A2EJBS8OK6uwBc6TpKAnQSeMYIHm6z/lNrMnj01j9uXnM0DBYLEOgF56BRZMG51x4xK4jrIQUvrrsI5Lxk1zkUI3Z4/alHpsJAmA9NemHDIEHXxQQuFWB6qp06BwAI7mg89YhvuSkdZvPoFQx85wEAF7uOkijce+f9ywJ5EpBnGk8dvTzRUyyH1U030VT0WrsYBse4zhIM/tt5N4x7KNlVRi5en53fEn1fgPxk1zoog/MbTxkbyKm7eI1/alXvrN7esQKZCWAmiOkAernOFS8CC3L6bz/T1eSv4W4gAGYsXBh5v+uIe43gs66zJMlWH3gZxEti5M1etk9tkBfBgvT4zWu+DvK3rnMEaHOnwaQ51yf/iLPg+Xf+DPCKZNc5hJsbTxsbmjXTK+ZvzGnr3TGBggkCTAbsiYA5DkjSMgDBa8yK4PiamWN3uQoQ+gYCYO9FrYHr/teQl7mOknSET8FbAtT4kFUCro4Ys7rLyjt5A7ZsTdVp5ufd1JCX1av3O0B45goKBPGTC/5r/I3JLjP5uXcuEOHfkl3nYAgsFTKwGwoFJkLDfCEGUJBvKfkGzCdklIATCIxKyVNS3bPZj2L6yrPGvuMyROq8uPPoTR649m4hPu86imNbaWULgd1i0CrCJgBR16EO5cx1nHDCJpsSI1oSicBu0xU54oK5yf2VOOmFDYOEHVvT+AtT7UNiD2lPWXHGeOdr1ERcB+i2OeIvJ784+bk160TkJtdxHBoiwiECANy3hVyEQNFWay1TIGzi9bORzq8BuDmZRVbMOnz75OfWNAAoSmYd5VwbIeeFoXkAIZnKpNtEuPyMcT/0Id8hEOjkdSp+hdst8jutcT4du6PNWn4zoGlO/hlADeVOJ8ELV5w+dpHrIB9IrQayz8rTx95O8DLuHR4L3cK9lW61Xc7nq3K5QUZg+apTDviGThAhFrn+t9YtOZslO3zgwuWnj0v4uuY9kTqnsD5hxenjHpr4/KpNQvOIAINd51H7l99JHLHDjzDDT81b8HIASZ1+3UTwsu8zmSWUAwRaALlg5elHhmP6/o9I+U910bOrR0WBxwQSjgXs1cccs8nHmWt81zGcI9HU9H7LoKvuSu4ousnPvL0dgoHJrKEC1WzB81aeMX6h6yD7k5KnsD6q/ozx602vjpMheNR1FvWvxm+3La6vQYRhA5jfd0je0cl+vQlZmewaKhgEN8KzJ4W1eQApfArroxpnFjaDvGjCc2uuM+CPJU2eV6oTAKN37b14rgCInQngtWSWoOEqIZ0vdat6hkC9MXJ246zx77rOcjDp80UrwreAWyY+9/bLsHxQgNGuI2W6oS0WnmW2to99yBkAfprMEsbnqtQ/MZ3ZLOzzXZ53USrMmZfyp7A+aeXp417t9KSEEOeTy2W6wS3wLQnd9m5RBLAYkcGqpNdQyXRX3uA9Z6dC8wDS4CL6AZEy+dk1VwG8DUCe6ziZaObbnZuPfc8f7jpHaBCM2qx+X7p1UlOySkx6ZvV0SfJpMpUUzQC+tPzM8Sn1wzd9TmF9kgiXA7+f+PTyZ8DI/xhB0sfhq48bsZvNtHoC6yPEM50TACTvLmIjTfD1HttUQot68eSS5WeOb3CdJVbp20D2WXnW5HdAzpr49OqvivDnAnE75XUGyWuz1AvoHydgUo/IpEua0u/EdHoiQAK/a2npc+17c0a1uc4Tj7RvIAAAEa4E/rvo2dVPdPr4pSe80HWkTBCJWi9D5786MJvcHzDs3dEsXZnxsU5lFtgC4sqVs4+a7zpLT2TUO63+jPHrAVw08cnVMyH2DgEKXWdKZyaKLO0fHyewSW0gZodtsnn6oofcI/T59bfOnbjNdZCeysiD3ZVnj1/oNXdNAeR6Aikx2iEVCZjl+ga+sG0WyE3ma944p7CTQEcya6j4kFxHmrNWzJ4wJx2aB5BhRyAf1TinsBPAzye9sPxudkW+D/LrAvRxnSut+FZnZvoXmbF8sfo/BNqt4La+fv4tVeeOaHWdJ5EytoF8YMWsydsBXFMw/+3brfHnErhcBEFMvZ32LNimX5cfR4ukDeEFgIJ5Db0s0DuZNVT3EfI3Ruz3Vp0+ca3rLMmQ8Q3kA43njnsXwBcm/GPlj+jhOwJ8RY9IesYnO4yOKP0YgkltIDbL5EMvPLkndjEp/7ny7EmhnccqEbSBfMJb501cC+Db459adZuA1xjyy5Lk89bpqtOgPaInsT4m2Q1EelEvoTtEsBLEf608e/KzrrMEQRvIAayefdR7AL5b8EzDj7v8rC8Z8qsCHOk6Vypp6SWt2Z36dfYxXmRdMndP6n1OLtDKAhH5+cpzj3rOdZYgaQM5hMYzC3cAuA038f9NOnrVWbD2GzQ4QzJ0BFsstvb1ugY26VogHyJ8In9Nkmvk63X6gJCdEHmcBretPGdipes4LmgD6a65YlcATwJ4smB+w2gLcykFlwGS/AnyUtSmfqbPhPf0y+xDxNpv3XFUUofYWpjRAn3Nk4nEWgP+McLoPfXnFr/vOo9L2kDi0Hhu4bsAbgZw86T5y6dQ5DKSn9Ep5D9u/UAzSqcy+T8WrE16EbETtH8k3r77xf5G4YOrKicvwFzR4SHQBtJjK86dvBTAUgD/Pmn+8ikEzgN5HkTKXWdzbXeuN8oK3xOLka6zhIEQSR+RQytHiZ7CSghSdkHwLA3ndeb0eWrdzLHtrjOFjTaQBPpIM/lhwfyG0b71ZlnByQKeIsDhrvO5sD1b1g5sstpAAFh4CwKochSYvqs0JNPeyQ3ZKJCnhfLUYX03vbxo5syo61xhpu+0gEye33iUDzmZ5LFiWQEjRZmw9G7xms43pje2Hus6h2skN17zx+NGSpKvcE/8e+M2CAYls0baIDspUg/IKyQWMSvy8urZR211HSuVpP0XWFgsP7dgFYBVAP4IAGMWru2T09RW1gVMEYtCA0wgcRQMRksaNfblo7JKjq1Dixhm9r00xEPJbh4FTzYM96MYpNdAPo5AFMQ6wK6G8VYKWeMD1b060NA4p6DTdb5Upg3EkX3nU1/ft31o5Lz12TnZuyeQGCXEYYCMgOAwgCNozSARm0tIPoh+EOSG/W75rgiyd+SbxQOao9NdZ3HJWtyX7Bp+FCfSYfcg0QyDlUkrYOFBMBhgLiHbINgJiz1G0GyBdkD2iGCHAO9byy0wZkOWcGPOxtZ3qq6a2pW0XBlMG0jI7FtYpmbfFrcxC9f26dvSlN2OPjnoaP9wbqQs39vVktVp111QvqunWbur/5WvnEYyo26w+jjWXn/PST369+xWFcoMuDz8EJm/6ryCf3MXQAVNG0ia2neE0w5gp+ss1919wvO3fOGlpRBMcZ3FCeK2YMrwZJfnPgWsc1heOaANRAVD+HNS/uI6hgNr2kf7Dye7yIT5Kwcz2uX0plYS2kAyjDYQFYi2USf9NWvtS8tFMNl1lkBRbp47N/lDQRntmuF68IWBV++yvgqezuekAjF3rljCfsv1ioABb0uPatv8pyBeX0t7Abj3TgYXG2m3rLxg8jtBPFcVHtpAVGBuvHfmCyQfCcEXe9I3S1gL+eacR+YkfTbJw+ZX5gjlfGLvJXQnG+VjowlVZtBTWCpQIva71pdZEAxwnSWZCPzhpvtOXhxErfzO3udSmBdErQMxRhtIJtIjEBWo/7r31A0+7RW+JS2JtNws621O8/eCek198hJ3hx57N99qA8lE2kBU4OY+OOsJgHck4NR7CDe2RH07Z+5d57YG8VqOeay6vwjOCqLWgZBo6/CbtIFkID2Fpdzo2nGt7w0sMIJZrqMkCknfiFz2k7+ctjyomlm++ZyAvQ/9l8lDysvvzZne5jKDckOPQJQTcx+Z0+k1t51Py8W0RKpv1idBfnXuQ7MeD+o1nLFwYUSA7wZV70CMyeRZBjKbNhDlzNwnzm2N2q7zfctG59cteriR+P6P/3L63UG+fu9uG3AxyTGuR5z5vmgDyVDaQJRTNz8ye6vN6jyB9F9x/UUY33Bd6wP2az995LRbgn7tPOCaoGv+C+Hba+aU6B3oGUobiHLulgfP2ZnVFj3Dpz/fdUOIabO2leBFP5135u+Dfs3GzKs5E0S569FXoDyW/Gerwipt1p1Q6YBy3Wee/RaI20SQ5TrNwZBc6Qnm/OzRs5K/zvm/Fpdxjyx7XYBjAq/9ySgGx799YflrrnMoN7SBqNC59jPPnAja+wQyxnWW/SL+ZPO8q39x3+ktLsof8fDSKyIif3ZR+xPeW91YNgZzxboOotzQBqJC6aZz5ue0Zpn/IOV6ETgdpvoh8i1Arr7t8dnOLu3BnFAAAAi9SURBVBoXzGvIa7cdK0UwwlWGDwhxy+pLptzgOodyRxuICrVrzpk/CZ73UyE/BXF0zY7YTMGtTcOG3XnXXW5Xthv/8NKbKbjeZYYPkF7xmktKdQbeDKYNRKWEa85/qkB8e4MVXBzU9REC7wDyi/zdOf8zd9HM9iBqHsz4hyvHWZp6EffLGBNYsuaSKc6vwSi3tIGolHL92U8MaDe4CMAVII4TSfh7uI3EEwLe17cp7+m5i5K/lke33ERz5MSlC8RghusoACCQK1dfMuV/XOdQbmkDUSnr6rOeGmk8/xSxMhNiTwDkyNhPc7EJlGUCWQhjF0SjkdfveHp2R3ISx+/IhypvFMiPXOcAAAp2teXy8E3nTg1kvi8VXtpAVNq4+qynekfQOcGKmQBgMAT9aZEvZt+cb5RmCJsF3AMr74gxK3/15Dkb3KY+tCMfWjoVtK+FZWgzBf9vzSVTA5ttWIWXNhClQqxgXkNem99WLcR411mAvTO3ewYTV18y9W3XWZR7eie6UmFFSktn291haR4AAMoj2jzUB3Q6d6VC6sgHKn8MwcWg6yR7EaBneKvrHCo89AhEqRAad3/l5yj4vuscH0XgydWfPbradQ4VHnoEolTIjLrvjRNJ+wcJ0TVKAhSRH7vOocJFG4hSITLmgTfLDPk4EJLpW/Yh8Og7lx79puscKly0gSgVEuMeeL3C9/EsRAaG5LIHgL0jr0j/B65zqPD5/+3df2yV5RnG8et+TltBAkTYRCu0UM0WXZbFiEwgQ0pckU6ymA2zuAwnydKBprgtkLnFdYSYTKZEjMtCBBKZbAaThY0Bjri5OUylMJe5mC0BJ+XID0V+OHVSet7n3h+bWULGSOG0z/uefj/J+ad/9L2anOY69/Oe53kpECAHWp7aMzPGuM3Mx6bOcjZ3behdOH3InvOO4uAmOpDYlE09s2LMdkjKX3lIJ+srDd9NnQP5xAQCJNSycfedMcvWmWykPE8LVx/yrv2Lrj+WOgXyiQIBUti8uTT5dPNDLv9W9c+DrBLXK81Np398IHUO5FZO37lA7Zq4rntcfcmeVtBnU2c5F5cyi2H663dP25M6C/KLCQQYQi0bd0/NYva0m65OneX/cj1KeeB8KBBgCFzz2PZLzowZ11WJ2bIgq8vL8ST/S5T29/fV87VdnBcFAgyyyRtf+nR/FjcExev+/ZP8tkeUV8y08EgHz/rA+VEgwCBpWbt3bGzof8CzeJ9JpRz3xn9ZWNl71/Tu1DFQDBQIUGXXPLb9kr7Rl92T6cx3TBpfoG+qvHjw0vKDqUOgOAr03gZyrsvDlMndX4gef2CyltRxBsKl47Iwtffu6QdSZ0FxUCDARfr4+l2j3w/hK6Xo98p0beo8A+VSVgk29/BXZ/wmdRYUC0tYwAVqXtd9bQzZkg9cC0sxjpGU5/vj52SuBw4vmkl5YMCYQIABmPhk91Xqr3w+hLBA7jfn6ZkdF8JlPzu4aMaXZVbA6kNqTCDAeTRt+EOLR5tv8gXqr8wwyRRj6lgXzaUXrdS/iPLAhSr0pyeg2iau6x5XUmWau91o5je6a5qZJqTOVW3ueq0/Vm460tH6duosKC4KBDVv0vpdjYrZ1cH00SwGL5lORrPRwbOmzO2qIE2U1OTmTSabkjrvoHMdcS99ptwx87XUUVBsFAhqUvMTu27KFO+Sqz2YmlLnyQuXTnj02W903PyX1FlQfBQIakrzut9fn0VbHeSzU2fJG5feDRbber/W+lLqLKgNpdQBgKpwt6bGOV0e/SdBKtQmvqHg0jvBdWtvx2zKA1XDBILCu2Ht3vpjem+TpAWps+SRS6c8hrlvLJ7VkzoLagsTCIrN3Up79v1U0h2po+RRdL0VLLSVvz5rb+osqD0UCAptUuPsb5u0NHWOPHK3v1v01vLi2a+mzoLaxBIWCmvS47/9hJfCyyZvSJ0lb6L0p7qo9t57Wo+mzoLaxU50FFdJD5pHyuMsUdo2snL6zv2d7f9InQW1jQkEhdT4+HMfC8H+VvSzqKrJJTfZyvLi1u9zPAmGQkgdALgQJQsLzWVyiZfk7u/I7YvlJXO6KA8MFZawUEgxZnPNGD7+42WL4Y5y5xyOJsGQYgJB4dywdm+9zD6VOkdqLrlLPyqNKs2kPJACEwgK583K283mpfrUORI7FNwXlTvbdqYOguGLCQSFk3n9mNQZkjJtCqW+T1IeSI0JBIVj/VkcjltgXXo987Dk6NJbnk2dBZAoEBRR9OMehs8NdHedCaZH44i+FUc75v8zdR7gQ8PnvxC1w90a1+x810yjUkcZdKYtclt+aGnbvtRRgLMxgaB4zFxrnu2W2y2powwWl+0xz5Yf+sa836XOApwLBYJCMulXktdegUT92YN/7/DSW7eyIRB5xxIWCunKh7d+xOrqyuYakTpLNbirx0JYdWhp288pDhQFBYLCuuKRHWuCqTN1jgvlrijzbR784aP3fe6F1HmAgWIJC4VlXlnpKn3JTJenzjIQLh1z04b6ip4oL29nBzkKiwkEhTZh9fb5IWqLWb43xbrUL/mvo+yp0fXasr+zvS91JuBiUSAovCtWb1sWXKtS5zibuyoKeiHInvGGvmcO33v78dSZgGqiQFATGh/Z9k13X2WytHvU3Y67+XNy+2V9Je44eP9tJ5PmAQYRBYKaceWqrW0uW2+miUN1TZe/5Qq7zfR8iHr+8Ps9r2jFijhU1wdSokBQU8Y/9IvRDaFumdw7ZRpbrd/rrijXAQv6a2b2qrn+qEroefP+eQeqdQ2gaCgQ1KQJP9w5KujM7e4+T/LpkprOXt5y+Sm5uUx9Jp2K0skQdSKW/IR5OCSP5YrpYIh1vSM/GLmvd0Xr6UR/DpBLFAiGheu6Nje8N+LSUWc81B0df/kpdUztT50JAAAAAAAAAAAAAAAAAAAAAAAAAAAAAAAAAAAAAAAAAAAAAAAAAAAAAAAAAAAAAAAAAAAAAAAAAAAAADAM/AtKMvFUxnk/LwAAAABJRU5ErkJggg==;" parent="1" vertex="1">
          <mxGeometry x="302.85" y="15" width="50" height="50" as="geometry" />
        </mxCell>
        <mxCell id="J7JJR4KkGGpUHsGLaVsS-4" value="" style="shape=image;verticalLabelPosition=bottom;labelBackgroundColor=#ffffff;verticalAlign=top;aspect=fixed;imageAspect=0;image=data:image/png,iVBORw0KGgoAAAANSUhEUgAAAKAAAAA2CAYAAABA8JJzAAAAAXNSR0IArs4c6QAAAARnQU1BAACxjwv8YQUAAAAJcEhZcwAADsMAAA7DAcdvqGQAAAAhdEVYdENyZWF0aW9uIFRpbWUAMjAyMDoxMToxNiAxNjo1OToyN1/Wv44AABBqSURBVHhe7Z0PeFPV3cd/IH9a5p8WK6aTgsE6ba1Kgfk2ZXOSihvlce8Mso32YbMEeYftu2eOyh6I4CN2uLEA/mllaoqvsLYqa33Et0HBFhmQANIEqKbIn6aUlhQoJm2BBFr62zk3J+3Nzc3ftnTA/fj85NxzTu693PvN7/z7nTAECSAhMUgMZX9KSAwKkgAlBhVJgBKDiiRAiUFlwAWot37HUhISvgyYAC92dsOf/mWFpz6xwKMfHIQ9tg5WIiHRy4AIcP3XLZD03n5ouXAZ6nKmwC/ujYPHNx2CxTus4OrqZrUkJAD6dR5wd3M7vGw8Ae2Xr8BLivEwQx7LSgBOtF+CZbsbuDqvTB0PWUljWInEjUy/CLDV2UmE1wj/sJwhwhsHf5h8Fyvx5ZNj54gQT8C9sdGcEJNvH8VKJG5E+twEF5pPkea2Brq6kTS3kwOKj/LfibfDod9OgofiRsHEDSZ4ZU8jK5G4EYnYA247YYeXDY0w4qYhXHP7k4TbWEno1LZegOXEGza0uWDF1LvhyXtGsxKJG4WwBdhI+nK0n/eZ1Q4vpY+DBQ/Fs5LI2Uia7uWkf/hYQgwR4nhIuGUkK5G43gmrCV71VRM3uo0ZOQzq5k3pF/FR5iaPgW+emQyjo4bBA/9XA6+bmlmJxPVOSB6QDhzoIOP73xvBeb0fym5hJf2P4VQ7N0jpvNLNNcuPRdC0DxhdLVC9UQulZWawjk2FrLn5oJ4mY4USEUEF6I+6cxfw1/9fh4m6fbjxm9Ms9+pQaG7G0YUG/N+qY2h3dbLcwcSOlQtl9MvKMxnmbrazcolIEPWANOP57cfhrQM2+N3D8ZA/ZSwMGzrEXXgVOXOxE7T7m7gBzzMP3Al/fVTOSiLD1WSEio/LofpTMxhqq6GuhRUkKkApT4bU6QpI/3E6KCcmQUwUK/Pg0ENe7EwoYoc9LKwE+1uZEMMOJcLDbxM8Yu0uGEI0R2U38qahgyJACp3ecV0ht0hu89LzP2K5YdJqhNXPZUP+JivLCIYc1JsNoHuS17y2VEB2/CwoZYc9zC0H2wYV3JgNsRVKVRMg+2P3UYERQZPmTocMFaAYw9fsxAnv7sPFO+ox4e29+LttR7HN1cVKB56GNif+Rn+Yu/atr+/G20lzHBHWEsyS8ZvN0ExVamMn8FCPuhm+9TLX17PyGxEDanjPgggwbAKOghf/cCy3dHbwt5Ogm3ighzbUwAeHz7LSgUNLRtvJ79XAmFEj4OkfxMFPJ8TC8Eg8sMsMf56TDaWeppaHPE0JyuluSwrJfRGvuMEA2hwFSRFIs61eZYCSnL51C65pDhhAz5IRw4ToA/WArq4rOLX0AOoOub3Bx0db8b7irzjPdOr8JS6vP9li/Q4f+YcZf/bPWtxra+cGQfQ+tjfaUfZW+F8ve4Xay1tRk83Voeksq8DDtDLVq56vB5TwxndQ1u8ekLL0vxLg1b0niQcE+AVbRhsdPRweft/ERb30B03nL4H68yMwn9j/PCyDLbNS4BHZLdx184kXvvtW4YggFBxg2FbM0h5UsHqlGlLj2CEPeUo6S0kEhU5HvZoN6nV9f/9BBZg5YTSkjrmZiMG9ZjuCDEjWPjYBSmbeB4VmG8z+tA6OO1xcWSS8VtMMD5Dm9tYRw8CSMwXmpbjbwy9PtsHWBgcseSSBOw4fK5hZ57iXSSAfy5ICYhLkkMrSPjSUwiwyIhsiZq8YWSURyIsyf1wM+fMyIEMxgX0mHpKV5HhePqz+22pR0x8jn/V3Td71HIf1ULx4vve5f54HRVus5OsXAg4r6N/Lh/lPpMMEz/njkyHjl3mwuswILV2sngeHEYqemwnJCfGQsVQPQvm9qGDn6DEyaGtihf5gntAHTxNMqWnpwFGv7cLmDt9mV7PTypW9aWpmOaGxrcGO6aR5f/yjQ7i7uY3l9vLEplp8vcZ9TqvDGUETbMACXvPgtkzUHWXFPtjRUl2FVcTK12tRZ+TN7xkLBOfh2QrxwZF9qwaVEQx+qHFNmb9rzi7BelsVamfLxcuZKch9Od23IoITLevVSHqvop/tsUQ16up4ZzlZgiqxen5NhSUn2Wf9EJIAKXlfHONMjF1NbfijsgM4o7wWD509z3LFsZG+44KtRzhBvX3wFMv1pqzuDE58v4YdRSrAeix5SuShpOViSW14k8c20pckftn3XNREBOgk4lGI1Q3RqAADXjMkS0Wtmd2QF040rFSGfm5ZLlZ6+syDKUDq/b73+i7OG/rjz3sauc/9Za/4VamX9KxufOf0v7rxEBHfh4fPsKNIBUh84ArhykWvyWfkora0Ci1n/fsJL5w2NKxR+Z5LKEAn8bwTBXVkWagz80Rvq0TNNO97U6wxsUIe/q4ZoqWKnNO5U4OkqyGoK8fMhRrUrtKgWnBf1GRLqpg3daLdbuescol3HWoavbuMb8GebsgCpBQYG3HWJxZ2JI7pdAfXfP7kg4NoPNXO5W1vdOCj5PixDw/ijpMOLs8fr9U04U/JKJhPpALEozrMFDwkMZOlZGLuG5VEjOxz/hBrFgUCdFZrBN5Fhou2irwG4b3JNFgl9rZEm2IZKp8txMo6j6jt5Mum8K23sJKU8BGby5RhbgW/llgd4gUFjYZhhbBOZKPgsATY3Y14j24fVh4/x3L8s3Z/E45YuxPvKDJiHLEis3hzy6ftUhfeSYQmFGnEAiTUfxRCX6fH5KhaVYU2f845BAHWv6MU1FkkLiz6oqfz64G4UMWuuUyk30kErRTWI/1Fr8kks9bX+03XkTvxxr4517sOMc1OVsjoLwGGFY5FBjawlIxKV+49yXL8QyOjd/zqYejovAKWZybDcxODh27RaZefyUfDo2P7LwJGPlsHptoSWBRS1IoVKhZnQOq8UpKKjJaWapbyEAvRorNI0RAtWEC2toY0dgUYzv7kExUddD3aWmsAM0v38ONk98Q6j5ikVCBi9qLuZP9MuQkJS4CUeQ+SF0mEWFwb/IbuiYniVjDuGCX2xLw5YnfC6v1N3LxjfxOTkgXaahvY6ypB94IaFImswA8tG7Mhe63PqwqJqGFCoZPriurKCtadLHmVaGmoYKleVLIYcDgc3uYiz4yVezA02FiqfwlbgBTqBT2T04EgLTwXzBAK9Hx/nHIX/CA2muX0PzH3Z4J6lQ4MRxGcZy1QVVoAWWzeUYhxlR4CzPD5RZ4yi6U8FEHxp77+1FpWCIWC73BSQiheOlJaiAdkSR4VC5IhNjbW2x6cD0KptnRFPtcbiIgEyE1O39k7Oe0Pun5Mm+1g/KupjfsFhcgnncMnKi4JlHM0UFJbB5Z3snyjWVpMYG1g6TCIUShBzdIeKn6TATOfK4KK7dVQvb0CihZkQHpWqfdErkwDyiksfQMRkQApVCy0L3jq/GWW4wt1kEND8IHU+9Hz3TZyGMvpO449xb6rC6LEQNKzRVCUww57qABrJN2eOBVoSoWCtoJ+XR7MoisgylmQ9261YBVBBllr1KCMZMXxGidiAU4iHpD2B6l4/ME1wUH0t+nbVk7EwbZzhovLqof8xfk9VmIOpKYYiPcJakmFqAgFIZ9TDNWli0AZUouqgNzSaiieM9BRNTKQP8iSPFQb6ulMSHBbpmCf6F8iFiCF9gXf+6YFTKfPsxxvyG0H9X+v7muEJQMw8BBSWhtoXGsFi0+HLx2S7mbJsIki/zl6PaiMNPdpfIHJIGmaGhatrwTLWQMUzkki9QeepIm5LNVLRVl1xCN+IU7h2nEI9EmA8TePIOIZ53dahg5S6KK0P940n4K46OHw6/vvYDkDyB4T1LGkNw4wr82DF7ewQw85SkiPKM7eBXXvZpM+XjF7samg2WSCKiPf09jAUq0DbU4mJIlE5gwUYv1T2DIfsmlggcgYw9VSB9Vlq6F4v2+h72gfQL/VSP72AoKIsk8CpNBpkwNnz0Nlve/PsLn7gOKc77zCNd9LiYCvCtvyIJlGejxB+mDL3f1CGqWSHB8Lk/4ojOxQgPb3qoj2ebi2vQjKBbwBxv1ycBmLoXQLHYC4zXi4hU15DMzI0i+kf5q7xrcpNb46E+Kjh8AEBemjPkH7qckQTxxHNH1eWfkw/y29T3RNfKJwphDA/IoKJv2cfJnZs02/dwjkbQkyt0m+kaLQlZCTHS52FJjiWhsXuCqkoc3FrWyIsXSnFefqD7OjwOxv6cCYN0Vm/wNgK410DVWO6o+81wbs1QWomq5ERaJ4fQUpU62oQjvasHyuWJ1AJkPSHCNpjrGev9xVqwt6TfUaQ+9Sm2igAD03ubeF5bzVjnosmet/jVzcRKKIQlzm9F0O9EZUgK0XL+O0Dw9hXJEBi8yhhVlNLeuNnPbALaGt28OOejlqv8gJ3HLuAsvxD13Su+0NA7mfg2Ftz7TrNX5enn+TTVskGikTkpi5ZS8nVi0J9+XyTJaFJVZ2UdE1YIHxl9oCRqoUoNfXt7Mey58PNSKGiHhOAVYe9V0mrF+vCnoOWQq5doDX5tcDUr7kBRF8GSSIoLL+HN7z7j680s0yCMeJAONFBDjvs2/xhR2BN/NsPtaKUzaauMAEGu4VKU6rCasqdKhdlst5FOW0JPdDkyWhkh7nLELtGyVosIou2HKELkBChwm1T/ZBhDnlbo8xkAL0YDNh+XoN5s7me1q311S/oEVdhQnr/Qc/cdi/KkHtQlXPc5WnkWc6Oxc15JlW9QRL+CegAD3QTeJ0V1ruF8c47+iPpzdbsMB4gh0hHrM78ft/9xYgFRMNTvAXjvVN6wX81afuzfDvX+XN8P1ChwEL0npfPvdCqNCppYQiTH/BC9cnIQmQcvrCZW5r5hjSp1t3QDyypea0d+Q0bWrHCgQ4s/xrXP1VEzvqhUbe0H4hbZqX727ALr4rvWYQbNRJ06JIlJ8bJ+kxmnUiW0aDB3FeT4Q8Ch4zajisezwRymbeDyV1ZyBjUy3sam5npW4mjfGenCb69pqGKT/SCg3tLm7Nlw/d3HTf+v3cr6h+/cxkeDl9PNw0SBvh+4TDAHr+Rp3p6f73mUTFgGyiEpTCyWHZJEjys2/luoQJMWzofg06Mv294Ldb6HZNT+T04e8u4ri397ISxMmkT1di6W1Wab9S+dEhTCsxo570Ia95bOWYxfdmMiVqKixoE+lHOW0WrFyZ6dOJTw24l+P6I2IBUqjYnt16hBtovH2wdwRcsMcdOU339Y5/xy1A2o/MIGKjnGx3cZ+jwarhbmb6z0b81xNCtjQyWAjS6b/e6JMAPWxtsKOC7nDb5N7hRntvNHL676SvKH9nH17ovIJ3kb7gFyfs3H4R6iH/UH0czwXYF3LNYq3EXN4gJFSTzy5EU/BB43XHEPo/8gD6BbrHd7nhBKhTZHBvbBQU154Gx6Uu7hfxaciVw9UF428dCcsUA/sbg4NOlwPqtpVD8aZSMOysBqNoJA5dD04H5YxZoHoqE5SJEa37XfP0qwApzecvwUu7T8BnDXYYPnQotF/uhI7L3TCOCK9g6t1XZ933PxCXw9G7TjosBmJuZukbnH4XoIfPiQDn6r/lPOC0hBj4/OkUViIh0cuACdCD5dxF6d8CkfDLgAtQQiIQfQ7HkpDoC5IAJQYVSYASgwjAvwEi0LM07DbeiQAAAABJRU5ErkJggg==;" parent="1" vertex="1">
          <mxGeometry x="510" y="19" width="124.44" height="42" as="geometry" />
        </mxCell>
        <mxCell id="J7JJR4KkGGpUHsGLaVsS-27" style="edgeStyle=orthogonalEdgeStyle;rounded=0;orthogonalLoop=1;jettySize=auto;html=1;" parent="1" source="J7JJR4KkGGpUHsGLaVsS-9" target="J7JJR4KkGGpUHsGLaVsS-3" edge="1">
          <mxGeometry relative="1" as="geometry" />
        </mxCell>
        <mxCell id="J7JJR4KkGGpUHsGLaVsS-9" value="" style="shape=image;verticalLabelPosition=bottom;labelBackgroundColor=#ffffff;verticalAlign=top;aspect=fixed;imageAspect=0;image=data:image/png,iVBORw0KGgoAAAANSUhEUgAAACAAAAAhCAYAAAC4JqlRAAAAAXNSR0IArs4c6QAAAARnQU1BAACxjwv8YQUAAAAJcEhZcwAADsMAAA7DAcdvqGQAAAGKSURBVFhH7ZQ9SgNBFIBzm5zAC3gCD6AXiI2d2grapIxgo6KgNoIhVVJIUFDUtVJBBQWbbOUPuIXG6uk38MIq4+7MJrIIM/Cxs/Oz8715s1OJTk+kTCozK1UpkyAQBILA/xTY6c7JXXwmWqhvd2etY/PwEphfH5Pe47W8JLHETzey1pk2MtTfPxIjwhjb3N/wEmCh+zgyi3TOG4P26LZp2uhHIj0nD2cBIqXUdydkYWvcvGtf83jJCCy3psyYdF8ezgJEzofZdiI+vNw0uwC8A3K0Xz3sW79hw1mAvBMhdX0qvGsbgs9J71t/FiMX4MnYdH8WzgJsK5Dv9te27x0tSqM1aaB+cLFh+jiIf5ICjYzDxiEk5xo5eacd3vqvg91wwVkAWFT/dRbVdhXgjvCJHrwEAAkOGYuttmvmBqRO5PTZ5mThLQBsMYtx+4GmwzY2j0ICClufTkURvAWIlH+ds5CGS4g/wjYnC28BCrfiz6JttjlZDJUCruaiuVeGEhgFQSAIBIGSBaryCSh6mpVcYc0JAAAAAElFTkSuQmCC;" parent="1" vertex="1">
          <mxGeometry x="120" y="20" width="38.79" height="40" as="geometry" />
        </mxCell>
        <mxCell id="J7JJR4KkGGpUHsGLaVsS-24" value="API Key" style="points=[[0,0.5,0],[0.24,0,0],[0.5,0.28,0],[0.995,0.475,0],[0.5,0.72,0],[0.24,1,0]];verticalLabelPosition=bottom;html=1;verticalAlign=top;aspect=fixed;align=center;pointerEvents=1;shape=mxgraph.cisco19.key;fillColor=#005073;strokeColor=none;" parent="1" vertex="1">
          <mxGeometry x="210" y="34" width="26.67" height="12" as="geometry" />
        </mxCell>
        <mxCell id="J7JJR4KkGGpUHsGLaVsS-28" value="Client Certificate" style="aspect=fixed;html=1;points=[];align=center;image;fontSize=12;image=img/lib/mscae/Certificate.svg;" parent="1" vertex="1">
          <mxGeometry x="410" y="25" width="35.71" height="30" as="geometry" />
        </mxCell>
      </root>
    </mxGraphModel>
  </diagram>
</mxfile>
